<svg width="24" height="24" viewBox="0 0 24 24" fill="none" xmlns="http://www.w3.org/2000/svg">
    <path
        d="M11.6249 16.4064L1.1249 10.4064C1.00992 10.3408 0.914336 10.246 0.847848 10.1316C0.78136 10.0172 0.746338 9.88717 0.746338 9.75482C0.746338 9.62247 0.78136 9.49248 0.847848 9.37805C0.914336 9.26361 1.00992 9.16881 1.1249 9.10326L11.6249 3.10326C11.7382 3.03847 11.8665 3.00439 11.9971 3.00439C12.1276 3.00439 12.2559 3.03847 12.3693 3.10326L22.8693 9.10326C22.9843 9.16881 23.0798 9.26361 23.1463 9.37805C23.2128 9.49248 23.2478 9.62247 23.2478 9.75482C23.2478 9.88717 23.2128 10.0172 23.1463 10.1316C23.0798 10.246 22.9843 10.3408 22.8693 10.4064L12.3693 16.4064C12.2559 16.4712 12.1276 16.5052 11.9971 16.5052C11.8665 16.5052 11.7382 16.4712 11.6249 16.4064Z"
        fill="#232F34" />
    <path
        d="M12.0001 18.6373L22.1251 12.8492V12.8538C22.48 12.6511 22.9462 12.7783 23.1489 13.1332C23.3516 13.4881 23.2244 13.9542 22.8695 14.157L12.3695 20.157C12.1428 20.2865 11.8518 20.2865 11.6251 20.157L1.12513 14.157C0.768959 13.9527 0.641969 13.4842 0.846225 13.1281C1.05048 12.7719 1.51896 12.6449 1.87513 12.8492L12.0001 18.6373Z"
        fill="#232F34" />
</svg>
