<svg
    xmlns="http://www.w3.org/2000/svg"
    viewBox="0 0 24 24"
    width="24" height="24"
    id="vector">
    <path
        id="path"
        d="M 20 8.69 L 20 4 L 15.31 4 L 12 0.69 L 8.69 4 L 4 4 L 4 8.69 L 0.69 12 L 4 15.31 L 4 20 L 8.69 20 L 12 23.31 L 15.31 20 L 20 20 L 20 15.31 L 23.31 12 L 20 8.69 Z M 12 18 C 8.69 18 6 15.31 6 12 C 6 8.69 8.69 6 12 6 C 15.31 6 18 8.69 18 12 C 18 15.31 15.31 18 12 18 Z M 12 8 C 9.79 8 8 9.79 8 12 C 8 14.21 9.79 16 12 16 C 14.21 16 16 14.21 16 12 C 16 9.79 14.21 8 12 8 Z"
        fill="#e676ff"/>
</svg>
