<svg width="24" height="24" viewBox="0 0 24 24" fill="none" xmlns="http://www.w3.org/2000/svg">
    <path
        d="M20.3175 8.55469C19.7769 7.25475 20.5688 5.71877 19.425 4.575C18.2812 3.43123 16.7453 4.22315 15.4453 3.6825C14.152 3.14846 13.591 1.5 12 1.5C10.4087 1.5 9.84856 3.14973 8.55469 3.6825C7.25562 4.22611 5.71965 3.43035 4.575 4.575C3.43323 5.71677 4.22256 7.25616 3.6825 8.55469C3.14846 9.848 1.5 10.409 1.5 12C1.5 13.5913 3.14973 14.1514 3.6825 15.4453C4.22315 16.7453 3.43123 18.2812 4.575 19.425C5.71877 20.5688 7.25475 19.7769 8.55469 20.3175C9.848 20.8515 10.409 22.5 12 22.5C13.5913 22.5 14.1514 20.8503 15.4453 20.3175C16.7453 19.7769 18.2812 20.5688 19.425 19.425C20.5688 18.2812 19.7769 16.7453 20.3175 15.4453C20.8515 14.152 22.5 13.591 22.5 12C22.5 10.4087 20.8503 9.84856 20.3175 8.55469ZM11.25 7.5C11.25 7.0915 11.5915 6.75 12 6.75C12.4085 6.75 12.75 7.0915 12.75 7.5V12.75C12.75 13.1585 12.4085 13.5 12 13.5C11.5915 13.5 11.25 13.1585 11.25 12.75V7.5ZM12 17.25C11.555 17.25 11.1309 16.9667 10.9606 16.5555C10.6965 15.9179 11.0953 15.1579 11.7805 15.0216C12.4658 14.8853 13.125 15.4349 13.125 16.125C13.125 16.7377 12.6127 17.25 12 17.25Z"
        fill="#232F34" />
</svg>
