<svg width="24" height="24" viewBox="0 0 24 24" fill="none" xmlns="http://www.w3.org/2000/svg">
    <path
        d="M17.142 19.5153C17.7883 20.1616 18.869 20.1616 19.5153 19.5153C20.1616 18.869 20.1616 17.7883 19.5153 17.142L14.3732 12L19.5153 6.85798C20.1616 6.21166 20.1616 5.13105 19.5153 4.48473C18.869 3.83842 17.7883 3.83842 17.142 4.48473L12 9.62676L6.85798 4.48473C6.21166 3.83842 5.13105 3.83842 4.48473 4.48473C3.83842 5.13105 3.83842 6.21166 4.48473 6.85798L9.62676 12L4.48473 17.142C3.83842 17.7883 3.83842 18.869 4.48473 19.5153C5.13105 20.1616 6.21166 20.1616 6.85798 19.5153L12 14.3732L17.142 19.5153Z"
        fill="#232F34" />
</svg>
