<svg
    xmlns="http://www.w3.org/2000/svg"
    viewBox="0 0 24 14"
    width="24" height="14"
    id="vector">
    <path
        id="path"
        d="M 22.5 4.5 L 19.81 4.5 L 15.75 0.44 C 15.611 0.3 15.446 0.189 15.264 0.113 C 15.082 0.038 14.887 -0.001 14.69 0 L 4.151 0 C 3.905 0 3.662 0.062 3.445 0.178 C 3.228 0.294 3.043 0.463 2.906 0.668 L 0.126 4.834 C 0.044 4.957 0 5.102 0 5.25 L 0 9.75 C 0 10.148 0.158 10.529 0.439 10.811 C 0.721 11.092 1.102 11.25 1.5 11.25 L 3.094 11.25 C 3.259 11.895 3.634 12.467 4.16 12.876 C 4.687 13.284 5.334 13.506 6 13.506 C 6.666 13.506 7.313 13.284 7.84 12.876 C 8.366 12.467 8.741 11.895 8.906 11.25 L 15.094 11.25 C 15.259 11.895 15.634 12.467 16.16 12.876 C 16.687 13.284 17.334 13.506 18 13.506 C 18.666 13.506 19.313 13.284 19.84 12.876 C 20.366 12.467 20.741 11.895 20.906 11.25 L 22.5 11.25 C 22.898 11.25 23.279 11.092 23.561 10.811 C 23.842 10.529 24 10.148 24 9.75 L 24 6 C 24 5.602 23.842 5.221 23.561 4.939 C 23.279 4.658 22.898 4.5 22.5 4.5 Z M 4.151 1.5 L 14.69 1.5 L 17.69 4.5 L 2.156 4.5 L 4.151 1.5 Z M 6 12 C 5.703 12 5.413 11.912 5.167 11.747 C 4.92 11.582 4.728 11.348 4.614 11.074 C 4.501 10.8 4.471 10.498 4.529 10.207 C 4.587 9.916 4.73 9.649 4.939 9.439 C 5.149 9.23 5.416 9.087 5.707 9.029 C 5.998 8.971 6.3 9.001 6.574 9.114 C 6.848 9.228 7.082 9.42 7.247 9.667 C 7.412 9.913 7.5 10.203 7.5 10.5 C 7.5 10.898 7.342 11.279 7.061 11.561 C 6.779 11.842 6.398 12 6 12 Z M 18 12 C 17.703 12 17.413 11.912 17.167 11.747 C 16.92 11.582 16.728 11.348 16.614 11.074 C 16.501 10.8 16.471 10.498 16.529 10.207 C 16.587 9.916 16.73 9.649 16.939 9.439 C 17.149 9.23 17.416 9.087 17.707 9.029 C 17.998 8.971 18.3 9.001 18.574 9.114 C 18.848 9.228 19.082 9.42 19.247 9.667 C 19.412 9.913 19.5 10.203 19.5 10.5 C 19.5 10.898 19.342 11.279 19.061 11.561 C 18.779 11.842 18.398 12 18 12 Z"
        fill="#e676ff"/>
</svg>
