<svg width="24" height="24" viewBox="0 0 24 24" fill="none" xmlns="http://www.w3.org/2000/svg">
    <path
        d="M11.9995 1.99951C5.79028 1.99951 0.980317 7.86047 2.19168 13.9504C3.40305 20.0404 10.0898 23.6145 15.8264 21.2383C19.5235 19.7069 21.9995 16.0012 21.9995 11.9995C21.9908 6.5563 17.4427 2.0082 11.9995 1.99951ZM16.7095 10.7095L11.7095 15.7095C11.3206 16.091 10.6785 16.091 10.2895 15.7095L7.28953 12.7095C6.9042 12.3242 6.90083 11.6782 7.28953 11.2895C7.67625 10.9028 8.32282 10.9028 8.70953 11.2895L10.9995 13.5895L15.2895 9.28951C15.6762 8.9028 16.3228 8.9028 16.7095 9.28951C17.0962 9.67623 17.0962 10.3228 16.7095 10.7095Z"
        fill="#232F34" />
</svg>
