<svg width="24" height="24" viewBox="0 0 24 24" fill="none" xmlns="http://www.w3.org/2000/svg">
    <path
        d="M21.75 9C21.75 8.183 21.067 7.5 20.25 7.5H17.25V4.5C17.25 3.683 16.567 3 15.75 3H3.75C2.933 3 2.25 3.683 2.25 4.5V16.5C2.25192 17.1155 2.98826 17.4678 3.46875 17.0831L6.75 14.4375V17.25C6.75 18.067 7.433 18.75 8.25 18.75H17.0241L20.5312 21.5831C21.0103 21.9706 21.75 21.6178 21.75 21V9ZM17.2922 17.25H8.25V14.25H15.75C16.567 14.25 17.25 13.567 17.25 12.75V9H20.25V19.4297C19.5428 18.8578 17.625 17.25 17.2922 17.25Z"
        fill="#232F34" />
</svg>
