<svg width="24" height="24" viewBox="0 0 24 24" fill="none" xmlns="http://www.w3.org/2000/svg">
    <path
        d="M11.7432 1.99992C5.67823 1.99992 1.01062 7.77064 2.18051 13.6521C2.94169 17.4788 6.01432 20.5514 9.84103 21.3126C15.7894 22.4958 21.4932 17.7466 21.4932 11.7499C21.4876 6.44165 17.0514 2.00553 11.7432 1.99992ZM10.9932 7.24992C10.9932 6.8521 11.3453 6.49992 11.7432 6.49992C12.141 6.49992 12.4932 6.8521 12.4932 7.24992V12.4999C12.4932 12.8977 12.141 13.2499 11.7432 13.2499C11.3453 13.2499 10.9932 12.8977 10.9932 12.4999V7.24992ZM11.7432 16.9999C11.2982 16.9999 10.8741 16.7166 10.7038 16.3054C10.4364 15.6599 10.8468 14.9062 11.5237 14.7715C12.2088 14.6353 12.8682 15.1764 12.8682 15.8749C12.8682 16.4877 12.3559 16.9999 11.7432 16.9999Z"
        fill="#B3261E" />
</svg>
