<svg width="24" height="24" viewBox="0 0 24 24" fill="none" xmlns="http://www.w3.org/2000/svg">
    <path
        d="M12.0001 2.25C5.93515 2.25 1.26754 8.02072 2.43742 13.9021C3.1986 17.7288 6.27124 20.8015 10.0979 21.5627C16.0463 22.7459 21.7501 17.9966 21.7501 12C21.7445 6.69173 17.3083 2.25561 12.0001 2.25ZM12.0001 18C11.5551 18 11.131 17.7167 10.9607 17.3055C10.6934 16.6602 11.0955 15.9079 11.7806 15.7716C12.4657 15.6353 13.1251 16.1765 13.1251 16.875C13.1251 17.4877 12.6128 18 12.0001 18ZM12.7501 13.4662C12.7501 13.6652 12.6711 13.8897 12.5304 14.0303C12.2416 14.3192 11.7586 14.3192 11.4697 14.0303C11.1456 13.7062 11.2501 13.165 11.2501 12.75C11.2501 12.3415 11.5916 12 12.0001 12C13.2404 12 14.2501 11.1562 14.2501 10.125C14.2501 9.09375 13.2404 8.25 12.0001 8.25C10.7598 8.25 9.75008 9.09375 9.75008 10.125C9.75008 10.6379 9.66321 11.25 9.00008 11.25C8.33694 11.25 8.25008 10.6379 8.25008 10.125C8.25008 8.26406 9.93195 6.75 12.0001 6.75C14.0682 6.75 15.7501 8.26406 15.7501 10.125C15.7501 11.7544 14.4601 13.1522 12.7501 13.4662Z"
        fill="#232F34" />
</svg>
