<svg width="24" height="24" viewBox="0 0 24 24" fill="none" xmlns="http://www.w3.org/2000/svg">
    <path
        d="M6.7999 9.32011L10.3499 3.63011C10.7599 2.96011 10.2799 2.10011 9.4999 2.10011H5.3999C4.2999 2.10011 3.3999 3.00011 3.3999 4.20011V6.50011C3.3999 7.75226 4.43879 8.64647 5.2299 9.48011C5.6799 9.95011 6.4599 9.87011 6.7999 9.32011Z"
        fill="#232F34" />
    <path
        d="M20.6004 4.10011C20.6004 3.00011 19.7004 2.10011 18.6004 2.10011C17.3513 2.10011 12.9995 1.5 12.6304 2.57011L7.51037 10.7901C7.26037 11.1801 7.32037 11.6801 7.63037 12.0101C8.31014 12.7188 8.90037 13.5681 8.90037 14.6001V19.9001C8.90037 21.5001 10.7004 22.4001 12.0004 21.6001C12.9884 20.9649 14.3004 20.3726 14.3004 19.0001C14.3004 17.1071 13.9995 13.5 15.3004 12.4001L19.6004 8.60011C20.8175 7.38303 20.6004 5.66671 20.6004 4.10011Z"
        fill="#232F34" />
</svg>
