<svg width="24" height="24" viewBox="0 0 24 24" fill="none" xmlns="http://www.w3.org/2000/svg">
    <path
        d="M21.75 11.25H20.9681C20.7882 9.13073 19.8645 7.14338 18.3606 5.63943C16.8566 4.13549 14.8693 3.21185 12.75 3.03188V2.25C12.75 2.05109 12.671 1.86032 12.5303 1.71967C12.3897 1.57902 12.1989 1.5 12 1.5C11.8011 1.5 11.6103 1.57902 11.4697 1.71967C11.329 1.86032 11.25 2.05109 11.25 2.25V3.03188C9.13073 3.21185 7.14338 4.13549 5.63943 5.63943C4.13549 7.14338 3.21185 9.13073 3.03188 11.25H2.25C2.05109 11.25 1.86032 11.329 1.71967 11.4697C1.57902 11.6103 1.5 11.8011 1.5 12C1.5 12.1989 1.57902 12.3897 1.71967 12.5303C1.86032 12.671 2.05109 12.75 2.25 12.75H3.03188C3.21185 14.8693 4.13549 16.8566 5.63943 18.3606C7.14338 19.8645 9.13073 20.7882 11.25 20.9681V21.75C11.25 21.9489 11.329 22.1397 11.4697 22.2803C11.6103 22.421 11.8011 22.5 12 22.5C12.1989 22.5 12.3897 22.421 12.5303 22.2803C12.671 22.1397 12.75 21.9489 12.75 21.75V20.9681C14.8693 20.7882 16.8566 19.8645 18.3606 18.3606C19.8645 16.8566 20.7882 14.8693 20.9681 12.75H21.75C21.9489 12.75 22.1397 12.671 22.2803 12.5303C22.421 12.3897 22.5 12.1989 22.5 12C22.5 11.8011 22.421 11.6103 22.2803 11.4697C22.1397 11.329 21.9489 11.25 21.75 11.25ZM18.75 12.75H19.4625C19.287 14.4704 18.5233 16.0777 17.3005 17.3005C16.0777 18.5233 14.4704 19.287 12.75 19.4625V18.75C12.75 18.5511 12.671 18.3603 12.5303 18.2197C12.3897 18.079 12.1989 18 12 18C11.8011 18 11.6103 18.079 11.4697 18.2197C11.329 18.3603 11.25 18.5511 11.25 18.75V19.4625C9.52957 19.287 7.92235 18.5233 6.6995 17.3005C5.47666 16.0777 4.71305 14.4704 4.5375 12.75H5.25C5.44891 12.75 5.63968 12.671 5.78033 12.5303C5.92098 12.3897 6 12.1989 6 12C6 11.8011 5.92098 11.6103 5.78033 11.4697C5.63968 11.329 5.44891 11.25 5.25 11.25H4.5375C4.71305 9.52957 5.47666 7.92235 6.6995 6.6995C7.92235 5.47666 9.52957 4.71305 11.25 4.5375V5.25C11.25 5.44891 11.329 5.63968 11.4697 5.78033C11.6103 5.92098 11.8011 6 12 6C12.1989 6 12.3897 5.92098 12.5303 5.78033C12.671 5.63968 12.75 5.44891 12.75 5.25V4.5375C14.4704 4.71305 16.0777 5.47666 17.3005 6.6995C18.5233 7.92235 19.287 9.52957 19.4625 11.25H18.75C18.5511 11.25 18.3603 11.329 18.2197 11.4697C18.079 11.6103 18 11.8011 18 12C18 12.1989 18.079 12.3897 18.2197 12.5303C18.3603 12.671 18.5511 12.75 18.75 12.75ZM15.75 12C15.75 12.7417 15.5301 13.4667 15.118 14.0834C14.706 14.7001 14.1203 15.1807 13.4351 15.4645C12.7498 15.7484 11.9958 15.8226 11.2684 15.6779C10.541 15.5333 9.8728 15.1761 9.34835 14.6517C8.8239 14.1272 8.46675 13.459 8.32205 12.7316C8.17736 12.0042 8.25162 11.2502 8.53545 10.5649C8.81928 9.87971 9.29993 9.29404 9.91661 8.88199C10.5333 8.46993 11.2583 8.25 12 8.25C12.9946 8.25 13.9484 8.64509 14.6517 9.34835C15.3549 10.0516 15.75 11.0054 15.75 12Z"
        fill="#232F34" />
</svg>
