<svg width="24" height="24" viewBox="0 0 24 24" fill="none" xmlns="http://www.w3.org/2000/svg">
    <path
        d="M12.0001 22C10.2334 22 8.79176 21.7417 7.6751 21.225C6.55843 20.7083 6.0001 20.05 6.0001 19.25C6.0001 18.8 6.20426 18.375 6.6126 17.975C7.02093 17.575 7.58343 17.25 8.3001 17L8.7501 18.45C8.48343 18.5333 8.2376 18.65 8.0126 18.8C7.7876 18.95 7.60843 19.1 7.4751 19.25C7.75843 19.5833 8.34593 19.875 9.2376 20.125C10.1293 20.375 11.0501 20.5 12.0001 20.5C12.9501 20.5 13.8751 20.375 14.7751 20.125C15.6751 19.875 16.2668 19.5833 16.5501 19.25C16.4168 19.1167 16.2418 18.975 16.0251 18.825C15.8084 18.675 15.5584 18.55 15.2751 18.45L15.7001 17C16.4168 17.25 16.9793 17.575 17.3876 17.975C17.7959 18.375 18.0001 18.8 18.0001 19.25C18.0001 20.05 17.4418 20.7083 16.3251 21.225C15.2084 21.7417 13.7668 22 12.0001 22ZM12.0001 19.35C11.8001 19.35 11.6251 19.2917 11.4751 19.175C11.3251 19.0583 11.2168 18.9083 11.1501 18.725C10.7501 17.5083 10.2501 16.5 9.6501 15.7C9.0501 14.9 8.46676 14.1333 7.9001 13.4C7.33343 12.6667 6.8501 11.9042 6.4501 11.1125C6.0501 10.3208 5.8501 9.33333 5.8501 8.15C5.8501 6.43333 6.44593 4.97917 7.6376 3.7875C8.82926 2.59583 10.2834 2 12.0001 2C13.7168 2 15.1709 2.59583 16.3626 3.7875C17.5543 4.97917 18.1501 6.43333 18.1501 8.15C18.1501 9.33333 17.9501 10.3208 17.5501 11.1125C17.1501 11.9042 16.6668 12.6667 16.1001 13.4C15.5334 14.1333 14.9501 14.9 14.3501 15.7C13.7501 16.5 13.2501 17.5083 12.8501 18.725C12.7834 18.9083 12.6751 19.0583 12.5251 19.175C12.3751 19.2917 12.2001 19.35 12.0001 19.35ZM12.0001 9.65C12.4168 9.65 12.7709 9.50417 13.0626 9.2125C13.3543 8.92083 13.5001 8.56667 13.5001 8.15C13.5001 7.73333 13.3543 7.37917 13.0626 7.0875C12.7709 6.79583 12.4168 6.65 12.0001 6.65C11.5834 6.65 11.2293 6.79583 10.9376 7.0875C10.6459 7.37917 10.5001 7.73333 10.5001 8.15C10.5001 8.56667 10.6459 8.92083 10.9376 9.2125C11.2293 9.50417 11.5834 9.65 12.0001 9.65Z"
        fill="#232F34" />
</svg>
