<svg width="24" height="24" fill="none" xmlns="http://www.w3.org/2000/svg">
    <path
        d="M21 6.376c0-.964-.894-1.672-1.833-1.454-1.37.317-3.152.734-4.03.958a.763.763 0 0 1-.55-.066l-4.991-2.68a.75.75 0 0 0-.528-.07l-5.49 1.3A.75.75 0 0 0 3 5.092v13.466c0 .482.446.839.915.73 1.355-.311 3.852-.89 4.946-1.169a.737.737 0 0 1 .55.07c1.54.88 4.378 2.81 5.358 2.81 1.175 0 4.994-1.024 6.027-1.705.145-.096.204-.259.204-.433V6.377ZM9.23 15.923a.75.75 0 0 1-.556.725l-3.346.89a.75.75 0 0 1-.943-.725V6.407a.75.75 0 0 1 .55-.723l3.347-.923a.75.75 0 0 1 .949.723v10.44Zm10.385 1.67a.75.75 0 0 1-.55.723l-3.346.922a.75.75 0 0 1-.95-.723V8.026c0-.316.198-.598.5-.69.903-.271 2.246-.59 3.398-.88.479-.12.948.24.948.735v10.402Z"
        fill="#232F34" />
</svg>