<svg width="24" height="24" viewBox="0 0 24 24" fill="none" xmlns="http://www.w3.org/2000/svg">
    <path
        d="M12 21.5C11.8166 21.5 11.6375 21.4708 11.4625 21.4125C11.2875 21.3542 11.1333 21.2583 11 21.125C10.3 20.4917 9.54162 19.7625 8.72495 18.9375C7.90829 18.1125 7.14995 17.225 6.44995 16.275C5.74995 15.325 5.16662 14.3333 4.69995 13.3C4.23328 12.2667 3.99995 11.2333 3.99995 10.2C3.99995 9.56667 4.05412 8.97083 4.16245 8.4125C4.27078 7.85417 4.43328 7.325 4.64995 6.825L1.17495 3.325C1.02495 3.175 0.949951 3 0.949951 2.8C0.949951 2.6 1.02495 2.425 1.17495 2.275C1.32495 2.125 1.50412 2.05 1.71245 2.05C1.92078 2.05 2.09995 2.125 2.24995 2.275L21.375 21.375C21.525 21.525 21.5958 21.7042 21.5875 21.9125C21.5791 22.1208 21.5 22.3 21.35 22.45C21.2 22.6 21.025 22.675 20.825 22.675C20.625 22.675 20.45 22.6 20.3 22.45L16 18.15C15.5666 18.6333 15.1041 19.125 14.6125 19.625C14.1208 20.125 13.5833 20.625 13 21.125C12.8666 21.2583 12.7125 21.3542 12.5375 21.4125C12.3625 21.4708 12.1833 21.5 12 21.5ZM17.925 15.775L13.3 11.15C13.4333 11 13.5416 10.8292 13.625 10.6375C13.7083 10.4458 13.75 10.2333 13.75 10C13.75 9.51667 13.5791 9.10417 13.2375 8.7625C12.8958 8.42083 12.4833 8.25 12 8.25C11.7666 8.25 11.5541 8.29167 11.3625 8.375C11.1708 8.45833 11 8.56667 10.85 8.7L6.39995 4.25C7.14995 3.51667 8.00829 2.95833 8.97495 2.575C9.94162 2.19167 10.95 2 12 2C14.1166 2 15.9791 2.74167 17.5875 4.225C19.1958 5.70833 20 7.7 20 10.2C20 11.05 19.8291 11.9375 19.4875 12.8625C19.1458 13.7875 18.625 14.7583 17.925 15.775Z"
        fill="#232F34" />
</svg>
