<svg xmlns="http://www.w3.org/2000/svg" viewBox="0 0 16 34" width="12" height="24" id="vector">
    <path id="path"
        d="M 15.63 7.75 C 15.59 3.7 12.27 0 7.99 0 C 3.72 0 0.41 3.7 0.37 7.75 C 0.33 11.49 3.09 14.85 6.95 15.61 L 6.95 28.98 C 5.62 29.17 4.66 29.72 4.66 30.37 C 4.66 31.18 6.16 31.83 8 31.83 C 9.84 31.83 11.34 31.18 11.34 30.37 C 11.34 29.72 10.38 29.17 9.06 28.98 L 9.06 15.61 C 12.92 14.85 15.67 11.48 15.63 7.75 Z M 3.87 8.67 C 4.03 10.03 4.67 10.47 4.7 10.49 C 4.87 10.6 4.92 10.84 4.81 11.01 C 4.74 11.12 4.62 11.18 4.5 11.18 C 4.43 11.18 4.36 11.16 4.3 11.12 C 4.26 11.1 3.33 10.5 3.13 8.75 C 2.9 6.79 4.33 5.79 4.39 5.75 C 4.56 5.63 4.79 5.68 4.91 5.85 C 5.03 6.02 4.98 6.25 4.81 6.37 C 4.76 6.41 3.69 7.18 3.87 8.67 Z"
        fill="#232F34" />
</svg>
