<svg width="24" height="24" viewBox="0 0 24 24" fill="none" xmlns="http://www.w3.org/2000/svg">
    <path
        d="M19.5594 20.1756C18.9221 21.5434 17.4034 22.3352 15.9171 22.0745C13.9097 21.7225 12.6237 19.5433 13.3267 17.6014L8.35794 14.4092C6.8688 15.8699 4.33857 15.6053 3.18385 13.8681C2.03998 12.1472 2.76131 9.69693 4.688 8.88797C5.92792 8.36736 7.39792 8.64873 8.35794 9.59043L13.3267 6.40293C12.7452 4.80508 13.4786 2.97142 15.0016 2.21533C16.5247 1.45924 18.4287 1.98355 19.3499 3.41273C20.2712 4.8419 19.9626 6.79252 18.6451 7.86745C17.3276 8.94238 15.3547 8.85323 14.1395 7.66387L9.17076 10.8561C9.43929 11.5981 9.43929 12.4109 9.17076 13.1529L14.1395 16.3451C15.6279 14.8884 18.1531 15.1522 19.3083 16.8851C19.955 17.8551 20.0512 19.12 19.5594 20.1756Z"
        fill="#232F34" />
</svg>
