<svg width="24" height="24" fill="none" xmlns="http://www.w3.org/2000/svg">
    <path
        d="M20.835 10.35a.642.642 0 0 0-.313-.428l-1.255-.705a2.25 2.25 0 0 1-1.147-1.953l-.005-1.356a.638.638 0 0 0-.227-.483 9.025 9.025 0 0 0-2.95-1.639.657.657 0 0 0-.52.047l-1.33.734a2.25 2.25 0 0 1-2.174 0L9.58 3.83a.657.657 0 0 0-.52-.047c-1.08.36-2.08.918-2.948 1.646a.638.638 0 0 0-.227.481L5.88 7.27a2.25 2.25 0 0 1-1.147 1.95l-1.256.707a.642.642 0 0 0-.312.428 8.337 8.337 0 0 0 0 3.297.642.642 0 0 0 .312.428l1.255.706a2.25 2.25 0 0 1 1.147 1.953l.005 1.356c0 .184.085.364.227.483a9.025 9.025 0 0 0 2.95 1.639c.17.057.363.04.52-.047l1.332-.736a2.25 2.25 0 0 1 2.176 0l1.332.735a.66.66 0 0 0 .52.046 9.04 9.04 0 0 0 2.947-1.645.638.638 0 0 0 .227-.48l.007-1.36a2.25 2.25 0 0 1 1.146-1.952l1.256-.706c.16-.09.277-.25.313-.428a8.339 8.339 0 0 0-.002-3.293ZM12 15.173c-2 0-3.538-1.878-3.153-3.791.251-1.245 1.264-2.245 2.526-2.493 1.96-.385 3.84 1.16 3.84 3.111 0 1.728-1.463 3.173-3.213 3.173Z"
        fill="#232F34" />
</svg>