<svg width="24" height="24" xmlns="http://www.w3.org/2000/svg" viewBox="0 0 24 24" id="vector">
    <path id="path"
        d="M 11.823 1.755 C 10.688 2.055 10.489 2.212 10.09 3.127 C 9.676 4.076 9.688 4.157 10.241 4.157 C 10.606 4.157 10.781 4.021 11.047 3.532 C 11.529 2.644 12.38 2.456 15.543 2.541 C 18.734 2.627 18.958 2.714 19.517 4.088 C 19.758 4.678 19.955 5.266 19.955 5.395 C 19.955 5.66 18.57 5.915 16.169 6.09 C 14.88 6.184 14.69 6.237 14.787 6.471 C 14.849 6.62 14.975 6.948 15.068 7.2 C 15.161 7.453 15.365 7.659 15.522 7.659 C 16.272 7.659 17.025 8.658 17.112 9.768 L 17.162 10.41 L 18.127 10.528 C 19.486 10.695 20.385 11.188 20.804 11.996 C 21.187 12.734 21.541 12.842 21.831 12.309 C 22.035 11.935 21.96 7.978 21.733 7.117 C 21.624 6.703 21.656 6.659 22.056 6.659 C 22.428 6.659 22.5 6.584 22.5 6.196 C 22.5 5.528 22.073 5.021 21.461 4.96 C 20.976 4.912 20.895 4.806 20.394 3.574 C 19.796 2.101 19.599 1.938 18.082 1.655 C 16.751 1.407 12.907 1.468 11.823 1.755 Z M 6.148 5.163 C 4.561 5.409 4.169 5.721 3.581 7.203 C 3.124 8.355 3.026 8.486 2.618 8.489 C 1.601 8.497 1.027 10.185 2.003 10.295 C 2.417 10.342 2.446 10.388 2.3 10.765 C 2.057 11.393 2.093 15.884 2.342 16.129 C 2.554 16.338 3.949 16.404 4.415 16.228 C 4.587 16.164 4.684 15.924 4.684 15.561 L 4.684 14.996 L 5.84 14.996 C 6.896 14.996 7.037 14.953 7.47 14.509 C 7.731 14.241 8.118 13.979 8.33 13.927 C 8.603 13.86 8.828 13.559 9.103 12.894 C 9.906 10.948 10.68 10.558 14.136 10.359 L 16.137 10.243 L 16.108 9.664 C 16.075 9.01 15.565 8.493 14.953 8.493 C 14.632 8.493 14.497 8.295 14.112 7.258 C 13.594 5.862 13.365 5.604 12.404 5.333 C 11.505 5.08 7.405 4.968 6.148 5.163 Z M 12.209 6.387 C 12.696 6.587 12.857 6.805 13.258 7.809 C 13.518 8.461 13.684 9.042 13.626 9.098 C 13.191 9.526 8.435 9.781 6.11 9.502 C 5.168 9.388 4.301 9.236 4.181 9.164 C 4.008 9.058 4.02 8.87 4.24 8.22 C 4.73 6.774 5.081 6.36 5.904 6.256 C 6.306 6.205 6.826 6.129 7.059 6.088 C 7.92 5.936 11.637 6.152 12.209 6.387 Z M 20.633 8.478 C 20.633 9.079 20.4 9.257 19.431 9.395 C 18.551 9.52 17.749 9.292 17.749 8.917 C 17.749 8.668 18.805 8.05 19.615 7.824 C 20.224 7.655 20.633 7.918 20.633 8.478 Z M 5.285 11.74 C 6.083 12.087 6.227 12.214 6.181 12.532 C 6.132 12.869 6.018 12.917 5.155 12.961 C 3.842 13.029 3.496 12.826 3.496 11.988 C 3.496 11.396 3.54 11.327 3.915 11.327 C 4.146 11.327 4.762 11.513 5.285 11.74 Z M 11.51 11.635 C 11.018 11.806 10.576 11.985 10.527 12.033 C 10.477 12.081 10.19 12.711 9.888 13.433 C 9.373 14.661 9.302 14.749 8.784 14.798 C 8.348 14.84 8.173 14.97 7.96 15.408 C 7.622 16.105 7.761 16.496 8.345 16.496 C 8.711 16.496 8.767 16.549 8.653 16.788 C 8.414 17.289 8.364 21.985 8.595 22.259 C 8.847 22.557 10.634 22.588 10.928 22.299 C 11.04 22.189 11.132 21.889 11.132 21.632 L 11.132 21.165 L 15.194 21.165 L 19.256 21.165 L 19.308 21.79 L 19.361 22.416 L 20.507 22.465 C 21.625 22.513 21.659 22.502 21.838 22.048 C 22.034 21.551 21.954 17.544 21.734 16.871 C 21.629 16.547 21.673 16.496 22.056 16.496 C 22.428 16.496 22.5 16.422 22.5 16.033 C 22.5 15.371 22.073 14.858 21.47 14.797 C 20.996 14.75 20.909 14.636 20.412 13.412 C 19.637 11.503 19.444 11.424 15.458 11.368 C 12.84 11.331 12.277 11.369 11.51 11.635 Z M 18.701 12.616 C 19.09 12.832 19.794 14.277 19.841 14.957 C 19.864 15.293 19.765 15.412 19.361 15.534 C 18.463 15.806 13.048 15.873 11.641 15.629 C 10.436 15.421 10.37 15.387 10.413 14.994 C 10.438 14.766 10.667 14.166 10.922 13.662 C 11.288 12.939 11.512 12.701 11.98 12.537 C 12.758 12.266 18.184 12.329 18.701 12.616 Z M 11.467 17.925 C 12.461 18.38 12.679 18.586 12.54 18.941 C 12.427 19.231 10.27 19.251 9.978 18.964 C 9.761 18.751 9.697 17.794 9.887 17.608 C 10.092 17.407 10.524 17.494 11.467 17.925 Z M 20.43 17.697 C 20.76 18.021 20.677 18.796 20.291 18.999 C 20.102 19.099 19.472 19.158 18.891 19.13 C 17.964 19.087 17.834 19.04 17.834 18.747 C 17.834 18.509 18.101 18.284 18.767 17.961 C 19.808 17.455 20.132 17.404 20.43 17.697 Z"
        fill="#232F34" />
</svg>
