<svg width="24" height="24" viewBox="0 0 24 24" fill="none" xmlns="http://www.w3.org/2000/svg">
    <path
        d="M22.2075 2.45529C21.9751 2.25461 21.6347 2.19627 21.3487 2.30811L2.34934 9.74342C1.80257 9.95603 1.45246 10.5202 1.50465 11.1045C1.55683 11.6888 2.00136 12.182 2.57715 12.2944L7.49996 13.2609V18.75C7.49802 19.348 7.88237 19.9179 8.43746 20.1403C8.9917 20.3666 9.66514 20.2232 10.079 19.7906L12.4528 17.3287L16.2187 20.625C16.6127 20.9744 17.174 21.0871 17.6728 20.9259C18.1677 20.7689 18.5592 20.3422 18.6731 19.8356L22.4784 3.28123C22.5465 2.98264 22.4392 2.65555 22.2075 2.45529ZM17.2059 19.5L9.45465 12.7031L20.6109 4.70717L17.2059 19.5Z"
        fill="#232F34" />
</svg>
