<svg
    xmlns="http://www.w3.org/2000/svg"
    viewBox="0 0 24 19"
    width="24" height="19"
    id="vector">
    <path
        id="path"
        d="M 23.197 5.969 L 21.884 2.688 C 21.773 2.41 21.58 2.172 21.332 2.005 C 21.084 1.838 20.791 1.749 20.492 1.75 L 17.25 1.75 L 17.25 1 C 17.25 0.801 17.171 0.61 17.03 0.47 C 16.89 0.329 16.699 0.25 16.5 0.25 L 2.25 0.25 C 1.852 0.25 1.471 0.408 1.189 0.689 C 0.908 0.971 0.75 1.352 0.75 1.75 L 0.75 12.25 C 0.75 12.648 0.908 13.029 1.189 13.311 C 1.471 13.592 1.852 13.75 2.25 13.75 L 3.844 13.75 C 4.009 14.395 4.384 14.967 4.91 15.376 C 5.437 15.784 6.084 16.006 6.75 16.006 C 7.416 16.006 8.063 15.784 8.59 15.376 C 9.116 14.967 9.491 14.395 9.656 13.75 L 14.344 13.75 C 14.509 14.395 14.884 14.967 15.41 15.376 C 15.937 15.784 16.584 16.006 17.25 16.006 C 17.916 16.006 18.563 15.784 19.09 15.376 C 19.616 14.967 19.991 14.395 20.156 13.75 L 21.75 13.75 C 22.148 13.75 22.529 13.592 22.811 13.311 C 23.092 13.029 23.25 12.648 23.25 12.25 L 23.25 6.25 C 23.25 6.154 23.232 6.058 23.197 5.969 Z M 6.75 14.5 C 6.453 14.5 6.163 14.412 5.917 14.247 C 5.67 14.082 5.478 13.848 5.364 13.574 C 5.251 13.3 5.221 12.998 5.279 12.707 C 5.337 12.416 5.48 12.149 5.689 11.939 C 5.899 11.73 6.166 11.587 6.457 11.529 C 6.748 11.471 7.05 11.501 7.324 11.614 C 7.598 11.728 7.832 11.92 7.997 12.167 C 8.162 12.413 8.25 12.703 8.25 13 C 8.25 13.398 8.092 13.779 7.811 14.061 C 7.529 14.342 7.148 14.5 6.75 14.5 Z M 2.25 7.75 L 2.25 1.75 L 15.75 1.75 L 15.75 7.75 L 2.25 7.75 Z M 17.25 14.5 C 16.953 14.5 16.663 14.412 16.417 14.247 C 16.17 14.082 15.978 13.848 15.864 13.574 C 15.751 13.3 15.721 12.998 15.779 12.707 C 15.837 12.416 15.98 12.149 16.189 11.939 C 16.399 11.73 16.666 11.587 16.957 11.529 C 17.248 11.471 17.55 11.501 17.824 11.614 C 18.098 11.728 18.332 11.92 18.497 12.167 C 18.662 12.413 18.75 12.703 18.75 13 C 18.75 13.398 18.592 13.779 18.311 14.061 C 18.029 14.342 17.648 14.5 17.25 14.5 Z M 17.25 5.5 L 17.25 3.25 L 20.492 3.25 L 21.392 5.5 L 17.25 5.5 Z"
        fill="#e676ff"/>
</svg>
