<svg width="24" height="24" viewBox="0 0 24 24" fill="none" xmlns="http://www.w3.org/2000/svg">
    <path
        d="M7.5625 20.8125C7.01022 20.8125 6.5625 20.3648 6.5625 19.8125V19.4375C6.5625 18.8852 7.01022 18.4375 7.5625 18.4375H14.9938C17.3314 18.4375 19.625 16.7536 19.625 14.2812C19.625 11.8089 17.3314 10.125 14.9938 10.125H7.5125L9.89289 12.5054C10.2834 12.8959 10.2834 13.5291 9.89289 13.9196L9.64461 14.1679C9.25408 14.5584 8.62092 14.5584 8.23039 14.1679L3 8.9375L8.23039 3.70711C8.62092 3.31658 9.25408 3.31658 9.64461 3.70711L9.89289 3.95539C10.2834 4.34592 10.2834 4.97908 9.89289 5.36961L7.5125 7.75H14.9938C18.6569 7.75 22 10.4826 22 14.2812C22 18.0799 18.6569 20.8125 14.9938 20.8125H7.5625Z"
        fill="#232F34" />
</svg>
