<svg
    xmlns="http://www.w3.org/2000/svg"
    viewBox="0 0 65 64"
    width="24" height="24"
    id="vector">
    <path
        id="path"
        d="M 35.407 9.894 L 60.417 53.212 C 61.354 54.835 61.973 55.914 62.297 56.733 C 62.605 57.515 62.495 57.696 62.474 57.731 L 62.472 57.734 L 62.471 57.737 C 62.451 57.773 62.349 57.958 61.518 58.081 C 60.647 58.211 59.403 58.215 57.528 58.215 L 7.51 58.215 C 5.635 58.215 4.391 58.211 3.52 58.081 C 2.689 57.958 2.587 57.773 2.567 57.737 C 2.567 57.736 2.566 57.735 2.566 57.734 L 2.564 57.731 C 2.543 57.696 2.433 57.515 2.742 56.733 C 3.065 55.914 3.684 54.835 4.622 53.212 L 29.63 9.894 C 30.567 8.271 31.192 7.195 31.74 6.506 C 32.262 5.847 32.474 5.852 32.515 5.853 C 32.517 5.853 32.52 5.853 32.522 5.853 C 32.562 5.853 32.774 5.847 33.297 6.506 C 33.844 7.196 34.469 8.271 35.407 9.894 Z"
        fill="#ffffff"
        stroke="#b3261e"
        stroke-width="3"/>
    <path
        id="path_1"
        d="M 33.379 23.566 C 33.106 23.71 32.721 24.073 32.522 24.373 C 31.839 25.406 32.112 27.227 33.198 28.863 C 33.958 30.01 34.556 30.455 35.425 30.525 C 36.023 30.573 36.197 30.528 36.678 30.203 C 37.376 29.73 38.008 28.883 38.242 28.105 C 38.703 26.573 37.632 24.565 35.889 23.694 C 34.935 23.217 34.119 23.176 33.379 23.566 Z M 24.723 27.883 C 24.371 28.071 23.922 28.748 22.333 31.493 C 21.256 33.351 20.336 35.03 20.288 35.223 C 20.184 35.636 20.445 36.329 20.836 36.677 C 20.986 36.811 21.344 36.951 21.633 36.99 C 22.293 37.079 22.82 36.788 23.245 36.1 L 23.555 35.599 L 24.224 35.989 C 24.591 36.203 24.982 36.432 25.091 36.499 C 25.261 36.602 25.237 36.713 24.926 37.273 C 24.481 38.074 24.46 38.607 24.86 38.97 C 25.023 39.119 26.732 40.146 28.657 41.252 C 30.582 42.358 32.247 43.348 32.355 43.452 C 32.52 43.611 32.565 44.334 32.619 47.766 C 32.665 50.639 32.734 51.973 32.845 52.166 C 33.271 52.91 34.536 53.172 35.233 52.661 C 36.01 52.091 36.053 51.839 36.053 47.903 L 36.053 44.315 L 36.448 44.228 C 36.665 44.181 36.95 44.006 37.08 43.84 L 37.317 43.54 L 40.417 45.337 C 42.121 46.327 43.595 47.186 43.691 47.247 C 43.928 47.399 43.639 47.588 42.459 48.055 C 40.389 48.875 38.873 49.815 37.652 51.041 C 37.052 51.643 36.054 52.903 36.054 53.056 C 36.054 53.196 54.123 53.16 54.21 53.02 C 54.252 52.952 53.997 52.402 53.643 51.798 C 53.289 51.194 51.973 48.917 50.718 46.738 C 49.463 44.558 48.318 42.58 48.175 42.342 L 47.915 41.91 L 47.417 42.606 C 47.143 42.99 46.529 43.961 46.053 44.766 C 45.576 45.569 45.092 46.306 44.977 46.401 C 44.766 46.576 43.852 46.091 38.619 43.026 L 37.419 42.324 L 36.064 37.077 C 35.318 34.192 34.655 31.692 34.591 31.522 C 34.401 31.022 31.553 28.03 31.078 27.832 C 30.761 27.699 29.923 27.652 27.902 27.652 C 25.542 27.652 25.096 27.684 24.723 27.883 Z M 28.749 30.788 C 28.549 31.145 25.959 35.523 25.919 35.573 C 25.848 35.661 24.167 34.741 24.166 34.614 C 24.166 34.557 24.248 34.379 24.349 34.218 C 24.449 34.058 24.956 33.198 25.476 32.308 L 26.422 30.689 L 27.613 30.689 C 28.268 30.689 28.78 30.734 28.749 30.789 Z M 33.075 37.293 C 33.475 38.774 33.786 40.001 33.767 40.021 C 33.699 40.088 30.357 38.114 30.347 38.001 C 30.337 37.879 32.267 34.519 32.317 34.571 C 32.335 34.587 32.676 35.813 33.075 37.293 Z M 24.697 39.893 C 24.699 40.097 24.786 40.86 24.891 41.586 C 24.996 42.313 25.084 43.092 25.087 43.318 C 25.09 43.608 24.516 44.737 23.11 47.204 C 20.992 50.918 20.88 51.224 21.329 52.091 C 21.779 52.961 23.166 53.191 23.894 52.516 C 24.211 52.222 27.701 46.412 28.571 44.73 C 28.797 44.29 28.841 43.361 28.681 42.332 C 28.582 41.704 28.853 41.902 25.388 39.917 L 24.695 39.519 L 24.697 39.892 Z"
        fill="#232f34"/>
</svg>
