<svg
    xmlns="http://www.w3.org/2000/svg"
    viewBox="0 0 32 32"
    width="24" height="24"
    id="vector">
    <path
        id="path"
        d="M 8.4 2.5 L 16.424 2.5 L 23.6 2.5 C 24.728 2.5 25.545 2.5 26.187 2.553 C 26.823 2.605 27.243 2.705 27.589 2.881 C 28.247 3.217 28.783 3.752 29.118 4.411 C 29.295 4.757 29.395 5.177 29.447 5.814 C 29.5 6.455 29.5 7.272 29.5 8.4 L 29.5 23.6 C 29.5 24.728 29.5 25.545 29.447 26.187 C 29.395 26.823 29.295 27.243 29.118 27.589 C 28.783 28.247 28.247 28.783 27.589 29.118 C 27.243 29.295 26.823 29.395 26.187 29.447 C 25.545 29.5 24.728 29.5 23.6 29.5 L 19.394 29.5 L 8.4 29.5 C 7.272 29.5 6.455 29.5 5.814 29.447 C 5.177 29.395 4.757 29.295 4.411 29.118 C 3.752 28.783 3.217 28.247 2.881 27.589 C 2.705 27.243 2.605 26.823 2.553 26.187 C 2.5 25.545 2.5 24.728 2.5 23.6 L 2.5 8.4 C 2.5 7.272 2.5 6.455 2.553 5.814 C 2.605 5.177 2.705 4.757 2.881 4.411 C 3.217 3.752 3.752 3.217 4.411 2.881 C 4.757 2.705 5.177 2.605 5.814 2.553 C 6.455 2.5 7.272 2.5 8.4 2.5 Z"
        fill="#ffffff"
        stroke="#232f34"
        stroke-width="1"/>
    <path
        id="path_1"
        d="M 14.142 13.769 L 13.354 9.205 L 15.638 11.138 L 17.092 9 L 17.428 11.354 L 19.291 9.757 L 19.176 12.504 L 20.658 12.901 L 19.091 15.003 L 18.416 14.499 L 19.241 13.393 L 18.309 13.143 L 18.372 11.653 L 16.813 12.988 L 16.567 11.264 L 15.807 12.382 L 14.576 11.34 L 14.971 13.628 L 14.142 13.769 Z"
        fill="#232f34"/>
    <path
        id="path_2"
        d="M 18.255 21.685 C 17.319 21.699 16.234 21.676 15.606 21.319 C 15.573 21.085 15.55 20.878 15.533 20.662 C 15.868 20.029 15.891 19.234 15.651 18.71 C 16.221 16.404 18.44 15.642 22.101 15.856 C 22.101 15.856 23.622 13.339 28.001 12.611 L 28.001 21.669 L 23.134 21.669 C 23.305 20.226 22.121 18.918 20.685 18.923 C 19.233 18.927 18.077 20.261 18.255 21.685 Z M 23.549 15.855 L 27.579 15.855 L 27.579 13.946 C 26.135 14.291 24.672 14.855 23.549 15.855 Z M 16.252 19.169 C 18.265 19.079 18.443 17.968 17.866 16.947 C 16.977 17.329 16.404 17.969 16.168 18.925 C 16.204 19.003 16.232 19.085 16.252 19.169 Z"
        fill="#232f34"/>
    <path
        id="path_3"
        d="M 20.694 19.346 C 21.803 19.346 22.73 20.273 22.73 21.382 C 22.73 22.491 21.803 23.418 20.694 23.418 C 19.585 23.418 18.658 22.491 18.658 21.382 C 18.658 20.273 19.585 19.346 20.694 19.346 Z M 20.694 20.504 C 21.172 20.504 21.572 20.904 21.572 21.382 C 21.572 21.86 21.172 22.26 20.694 22.26 C 20.216 22.26 19.816 21.86 19.816 21.382 C 19.816 20.904 20.216 20.504 20.694 20.504 Z"
        fill="#232f34"/>
    <path
        id="path_4"
        d="M 10.197 19.346 C 11.307 19.346 12.234 20.273 12.234 21.382 C 12.234 22.491 11.307 23.418 10.197 23.418 C 9.088 23.418 8.161 22.491 8.161 21.382 C 8.161 20.273 9.088 19.346 10.197 19.346 Z M 10.197 20.504 C 10.663 20.521 11.044 20.916 11.044 21.382 C 11.044 21.848 10.664 22.243 10.197 22.26 C 9.711 22.272 9.297 21.863 9.297 21.382 C 9.297 20.895 9.711 20.492 10.197 20.504 Z"
        fill="#232f34"/>
    <path
        id="path_5"
        d="M 14.877 17.215 L 14.772 18.215 C 15.625 18.615 15.464 19.998 15.112 20.662 C 14.586 21.654 13.617 21.67 12.637 21.67 C 12.809 20.23 11.63 18.922 10.197 18.922 C 8.747 18.922 7.587 20.247 7.756 21.67 L 4 21.67 L 4 12.612 C 6.53 12.192 9.004 12.561 11.493 13.029 C 12.321 13.184 12.6 13.237 13.318 14.105 C 13.994 14.924 14.92 16.231 14.877 17.215 Z M 14.27 16.273 C 11.387 16.725 12.969 18.34 14.351 18.215 L 14.457 17.215 C 14.469 16.922 14.396 16.602 14.27 16.273 Z M 7.175 15.856 L 12.933 15.856 C 11.614 14.078 9.427 13.673 7.175 13.586 L 7.175 15.856 Z M 6.206 15.855 L 6.206 13.638 C 5.605 13.702 5.009 13.805 4.421 13.945 L 4.421 15.855 L 6.206 15.855 Z"
        fill="#232f34"/>
</svg>
