<svg
    xmlns="http://www.w3.org/2000/svg"
    viewBox="0 0 30 32"
    width="25" height="26"
    id="vector">
    <path
        id="path"
        d="M 28 5.8 L 28 23 C 28 25.4 26 27.4 23.6 27.4 L 20 27.4 C 19.3 27.4 18.5 27.7 18 28.3 L 16.2 30.3 C 15.8 30.7 15.2 30.7 14.8 30.3 L 13 28.3 C 12.5 27.7 11.8 27.4 11 27.4 L 6.4 27.4 C 4 27.4 2 25.4 2 23 L 2 5.8 C 2 3.4 4 1.4 6.4 1.4 L 23.6 1.4 C 26 1.4 28 3.4 28 5.8 Z"
        fill="#ffffff"
        stroke="#b92025"
        stroke-width="1"/>
    <path
        id="path_1"
        d="M 15 18.2 C 14.2 18.2 13.6 18.8 13.6 19.6 C 13.7 21.4 16.3 21.4 16.4 19.6 C 16.4 18.8 15.8 18.2 15 18.2 Z"
        fill="#010101"/>
    <path
        id="path_2"
        d="M 16.4 8.6 C 15.7 7.6 14.2 7.6 13.5 8.6 C 13.1 9.1 13 9.7 13.1 10.4 C 13.4 12.3 13.8 14.9 14 16.1 C 14.2 17.3 15.8 17.3 16 16.1 L 16.9 10.4 C 16.9 9.8 16.8 9.1 16.4 8.6 Z"
        fill="#010101"/>
</svg>
