<svg xmlns="http://www.w3.org/2000/svg" viewBox="0 0 48 48" width="24" height="24" id="vector">
    <path id="path"
        d="M 24 5 C 21.361 5 13.33 5 8.89 9.054 C 6.246 11.688 5 15.494 5 21 L 5 24 C 5 29.506 6.246 33.312 8.921 35.976 C 10.253 37.191 12.069 38.162 14.289 38.833 L 15 39.047 L 15 44.375 C 15 45 15.181 45 15.241 45 C 15.364 45 15.561 44.961 15.935 44.629 C 16.025 44.54 16.685 43.826 19.895 40.23 L 20.219 39.867 L 20.704 39.898 C 21.779 39.965 22.888 40 24 40 C 26.639 40 34.67 40 39.11 35.945 C 41.753 33.311 43 29.505 43 24 L 43 21 C 43 15.494 41.754 11.688 39.079 9.024 C 34.67 5 26.639 5 24 5 Z"
        fill="#ffffff" />
    <path id="path_1"
        d="M 33.451 28.854 C 32.34 27.918 31.827 27.635 30.293 26.714 C 29.654 26.331 28.68 26 28.169 26 C 27.82 26 27.402 26.267 27.146 26.523 C 26.49 27.179 26.275 28 25.125 28 C 24 28 22.035 26.855 20.625 25.375 C 19.145 23.965 18 22 18 20.875 C 18 19.725 18.806 19.495 19.462 18.838 C 19.718 18.583 20 18.165 20 17.816 C 20 17.305 19.669 16.346 19.286 15.707 C 18.365 14.172 18.083 13.659 17.146 12.549 C 16.829 12.173 16.468 12.001 16.09 12 C 15.451 11.999 14.612 12.316 14.044 12.739 C 13.19 13.376 12.297 14.243 12.058 15.323 C 12.026 15.47 12.007 15.618 12.001 15.766 C 11.955 16.891 12.397 18.033 12.874 19 C 13.997 21.279 15.483 23.485 17.1 25.455 C 17.617 26.085 18.18 26.671 18.763 27.237 C 19.329 27.819 19.915 28.382 20.545 28.9 C 22.515 30.517 24.721 32.003 27 33.126 C 27.958 33.598 29.086 34.032 30.2 34 C 30.359 33.995 30.518 33.977 30.677 33.942 C 31.757 33.704 32.624 32.81 33.261 31.956 C 33.684 31.388 34.001 30.55 34 29.91 C 33.999 29.532 33.827 29.171 33.451 28.854 Z M 34 24 C 33.448 24 33 23.552 33 23 L 33 22 C 33 17.038 28.962 13 24 13 C 23.448 13 23 12.552 23 12 C 23 11.448 23.448 11 24 11 C 30.065 11 35 15.935 35 22 L 35 23 C 35 23.552 34.552 24 34 24 Z M 27.858 22 C 27.414 22 27.008 21.702 26.891 21.252 C 26.617 20.201 25.797 19.38 24.75 19.11 C 24.215 18.971 23.894 18.426 24.032 17.891 C 24.17 17.357 24.714 17.036 25.251 17.173 C 26.999 17.626 28.369 18.995 28.826 20.747 C 28.965 21.282 28.645 21.827 28.111 21.967 C 28.026 21.989 27.941 22 27.858 22 Z"
        fill="#7e57c2" />
    <path id="path_2"
        d="M 31 23 C 30.448 23 30 22.552 30 22 C 30 18.812 27.506 16.182 24.322 16.014 C 23.77 15.985 23.347 15.514 23.376 14.963 C 23.405 14.411 23.884 13.987 24.427 14.017 C 28.674 14.241 32 17.748 32 22 C 32 22.552 31.552 23 31 23 Z"
        fill="#7e57c2" />
    <path id="path_3"
        d="M 24 4 C 19.5 4 12.488 4.414 8.216 8.316 C 5.196 11.323 4 15.541 4 21 C 4 21.452 3.998 21.956 4.002 22.5 C 3.998 23.043 4 23.547 4 23.999 C 4 29.458 5.196 33.676 8.216 36.683 C 9.842 38.168 11.87 39.145 14 39.789 L 14 44.375 C 14 45.971 15.049 46 15.241 46 L 15.25 46 C 15.744 45.998 16.171 45.756 16.599 45.376 C 16.76 45.233 18.619 43.161 20.641 40.895 C 21.845 40.972 22.989 41 23.999 41 C 23.999 41 23.999 41 23.999 41 C 23.999 41 23.999 41 23.999 41 C 28.499 41 35.51 40.585 39.783 36.683 C 42.802 33.677 43.999 29.458 43.999 23.999 C 43.999 23.547 44.001 23.043 43.997 22.499 C 44.001 21.955 43.999 21.452 43.999 20.999 C 43.999 15.54 42.803 11.322 39.783 8.315 C 35.511 4.414 28.5 4 24 4 Z M 41 23.651 L 41 23.999 C 41 28.905 39.955 32.248 37.714 34.511 C 33.832 38 26.437 38 23.999 38 C 23.257 38 22.053 37.999 20.632 37.9 C 20.237 38.344 16 43.083 16 43.083 L 16 37.22 C 13.896 36.715 11.817 35.887 10.286 34.512 C 8.045 32.248 7 28.905 7 23.999 L 7 23.651 C 7 23.3 6.999 22.921 7.002 22.478 C 6.999 22.078 6.999 21.7 7 21.348 L 7 21 C 7 16.094 8.045 12.751 10.286 10.488 C 14.167 6.999 21.563 6.999 24 6.999 C 26.437 6.999 33.832 6.999 37.713 10.488 C 39.955 12.751 40.999 16.094 40.999 21 L 40.999 21.348 C 40.999 21.699 41 22.078 40.997 22.521 C 41 22.922 41 23.3 41 23.651 Z"
        fill="#7e57c2" />
</svg>
