<svg
    xmlns="http://www.w3.org/2000/svg"
    viewBox="0 0 30 32"
    width="25" height="26"
    id="vector">
    <path
        id="path"
        d="M 27.9 5.9 L 27.9 23.1 C 27.9 25.5 25.9 27.5 23.5 27.5 L 19.9 27.5 C 19.2 27.5 18.4 27.8 17.9 28.4 L 16.1 30.4 C 15.7 30.8 15.1 30.8 14.7 30.4 L 12.9 28.4 C 12.4 27.8 11.7 27.5 10.9 27.5 L 6.3 27.5 C 3.9 27.5 1.9 25.5 1.9 23.1 L 1.9 5.9 C 1.9 3.5 3.9 1.5 6.3 1.5 L 23.5 1.5 C 26 1.5 27.9 3.5 27.9 5.9 Z"
        fill="#ffffff"
        stroke="#2053b9"
        stroke-width="1"/>
    <path
        id="path_1"
        d="M 16.329 5.045 C 16.329 5.099 16.52 5.504 16.754 5.946 C 16.987 6.388 17.179 6.972 17.179 7.244 L 17.179 7.738 L 20.069 7.738 L 22.96 7.738 L 22.96 7.256 C 22.96 6.721 23.246 6.834 18.794 5.622 C 17.765 5.342 16.79 5.076 16.626 5.03 C 16.462 4.985 16.329 4.991 16.329 5.045 Z M 7.521 7.282 C 7.402 7.395 7.317 7.94 7.317 8.585 L 7.317 9.692 L 7.912 9.692 L 8.507 9.692 L 8.507 8.585 C 8.507 7.52 8.335 7.086 7.912 7.086 C 7.809 7.086 7.633 7.174 7.521 7.282 Z M 8.303 8.513 C 8.352 9.506 8.344 9.529 7.92 9.529 C 7.515 9.529 7.487 9.478 7.487 8.728 C 7.487 7.732 7.621 7.382 7.976 7.446 C 8.189 7.485 8.264 7.729 8.303 8.513 Z M 16.435 9.471 C 18.362 8.91 22.365 8.151 22.365 8.151 C 22.526 8.093 21.796 8.086 17.195 8.063 C 17.037 8.284 16.084 9.573 16.435 9.471 Z M 17.727 9.514 C 17.701 9.522 17.801 9.752 17.948 10.025 C 18.874 11.741 21.712 11.424 22.276 9.542 C 22.427 9.036 22.354 8.536 22.134 8.567 L 17.727 9.514 Z M 7.317 12.135 L 8.507 12.135 L 8.507 10.181 L 7.317 10.181 L 7.317 12.135 Z M 16.649 12.278 C 15.564 13.095 12.671 17.835 12.342 17.834 C 12.137 17.833 9.042 16.675 8.72 16.479 C 8.602 16.407 8.507 16.027 8.507 15.626 C 8.507 14.908 8.503 14.903 7.912 14.903 L 7.317 14.903 C 7.317 15.665 7.472 16.681 7.138 17.382 C 6.735 18.228 7.045 18.458 10.393 19.804 C 11.42 20.217 12.381 20.563 13.004 20.765 C 13.458 20.913 13.974 20.874 14.296 20.521 C 14.866 19.894 15.605 18.812 15.824 18.812 C 16.136 18.812 15.821 21.148 16.053 21.371 C 16.103 21.418 21.769 12.462 21.911 12.112 C 21.942 12.035 20.862 11.972 19.511 11.972 C 17.366 11.972 17.003 12.011 16.649 12.278 Z M 17.519 21.795 C 17.519 21.969 22.376 21.906 22.96 21.906 L 22.96 23.046 L 15.988 23.046 L 15.988 24.023 C 15.988 24.563 16.426 25 16.966 25 L 24 25 C 24.552 25 25 24.556 25 24.004 C 25 20.946 25 14.329 25 12.536 C 25 12.264 24.859 12.044 24.587 12.022 C 24.329 12.001 24.02 12 23.857 12 C 24.003 12.002 17.519 21.621 17.519 21.795 Z M 7.317 14.578 L 8.507 14.578 L 8.507 12.46 L 7.317 12.46 L 7.317 14.578 Z M 8.337 13.5 C 8.337 14.07 8.271 14.23 8.007 14.297 C 7.554 14.41 7.487 14.306 7.487 13.492 C 7.487 12.848 7.524 12.786 7.912 12.786 C 8.301 12.786 8.337 12.847 8.337 13.5 Z"
        fill="#232f34"/>
</svg>
