<svg
    xmlns="http://www.w3.org/2000/svg"
    viewBox="0 0 32 32"
    width="24" height="24"
    id="vector">
    <path
        id="path"
        d="M 8.4 2.5 L 16.424 2.5 L 23.6 2.5 C 24.728 2.5 25.545 2.5 26.187 2.553 C 26.823 2.605 27.243 2.705 27.589 2.881 C 28.247 3.217 28.783 3.752 29.118 4.411 C 29.295 4.757 29.395 5.177 29.447 5.814 C 29.5 6.455 29.5 7.272 29.5 8.4 L 29.5 23.6 C 29.5 24.728 29.5 25.545 29.447 26.187 C 29.395 26.823 29.295 27.243 29.118 27.589 C 28.783 28.247 28.247 28.783 27.589 29.118 C 27.243 29.295 26.823 29.395 26.187 29.447 C 25.545 29.5 24.728 29.5 23.6 29.5 L 19.394 29.5 L 8.4 29.5 C 7.272 29.5 6.455 29.5 5.814 29.447 C 5.177 29.395 4.757 29.295 4.411 29.118 C 3.752 28.783 3.217 28.247 2.881 27.589 C 2.705 27.243 2.605 26.823 2.553 26.187 C 2.5 25.545 2.5 24.728 2.5 23.6 L 2.5 8.4 C 2.5 7.272 2.5 6.455 2.553 5.814 C 2.605 5.177 2.705 4.757 2.881 4.411 C 3.217 3.752 3.752 3.217 4.411 2.881 C 4.757 2.705 5.177 2.605 5.814 2.553 C 6.455 2.5 7.272 2.5 8.4 2.5 Z"
        fill="#ffffff"
        stroke="#2053b9"
        stroke-width="1.5"/>
    <path
        id="path_1"
        d="M 16.472 6.045 C 16.472 6.099 16.663 6.504 16.897 6.946 C 17.13 7.388 17.322 7.972 17.322 8.244 L 17.322 8.738 L 20.212 8.738 L 23.103 8.738 L 23.103 8.256 C 23.103 7.721 23.389 7.834 18.937 6.622 C 17.908 6.342 16.933 6.076 16.769 6.03 C 16.605 5.985 16.472 5.991 16.472 6.045 Z M 7.664 8.282 C 7.545 8.395 7.46 8.94 7.46 9.585 L 7.46 10.692 L 8.055 10.692 L 8.65 10.692 L 8.65 9.585 C 8.65 8.52 8.478 8.086 8.055 8.086 C 7.952 8.086 7.776 8.174 7.664 8.282 Z M 8.446 9.513 C 8.495 10.506 8.487 10.529 8.063 10.529 C 7.658 10.529 7.63 10.478 7.63 9.728 C 7.63 8.732 7.764 8.382 8.119 8.446 C 8.332 8.485 8.407 8.729 8.446 9.513 Z M 16.579 10.471 C 18.505 9.91 22.508 9.151 22.508 9.151 C 22.669 9.093 21.939 9.086 17.338 9.063 C 17.18 9.284 16.227 10.573 16.579 10.471 Z M 17.87 10.514 C 17.844 10.522 17.944 10.752 18.091 11.025 C 19.017 12.741 21.855 12.424 22.419 10.542 C 22.57 10.036 22.498 9.536 22.277 9.567 L 17.87 10.514 Z M 7.46 13.135 L 8.65 13.135 L 8.65 11.181 L 7.46 11.181 L 7.46 13.135 Z M 16.792 13.278 C 15.707 14.095 12.814 18.835 12.485 18.834 C 12.28 18.833 9.185 17.675 8.863 17.479 C 8.745 17.407 8.65 17.027 8.65 16.626 C 8.65 15.908 8.646 15.903 8.055 15.903 L 7.46 15.903 C 7.46 16.665 7.615 17.681 7.281 18.382 C 6.878 19.228 7.188 19.458 10.536 20.804 C 11.563 21.217 12.524 21.563 13.147 21.765 C 13.601 21.913 14.118 21.874 14.439 21.521 C 15.009 20.894 15.748 19.812 15.967 19.812 C 16.279 19.812 15.964 22.148 16.196 22.371 C 16.246 22.418 21.912 13.462 22.054 13.112 C 22.085 13.035 21.005 12.972 19.654 12.972 C 17.509 12.972 17.146 13.011 16.792 13.278 Z M 17.662 22.795 C 17.662 22.969 22.52 22.906 23.103 22.906 L 23.103 24.046 L 16.132 24.046 L 16.132 25.023 C 16.132 25.563 16.569 26 17.109 26 L 24.143 26 C 24.695 26 25.143 25.556 25.143 25.004 C 25.143 21.946 25.143 15.329 25.143 13.536 C 25.143 13.264 25.002 13.044 24.73 13.022 C 24.472 13.001 24.163 13 24 13 C 24.146 13.002 17.662 22.621 17.662 22.795 Z M 7.46 15.578 L 8.65 15.578 L 8.65 13.46 L 7.46 13.46 L 7.46 15.578 Z M 8.48 14.5 C 8.48 15.07 8.414 15.23 8.15 15.297 C 7.697 15.41 7.63 15.306 7.63 14.492 C 7.63 13.848 7.667 13.786 8.055 13.786 C 8.444 13.786 8.48 13.847 8.48 14.5 Z"
        fill="#232f34"/>
</svg>
