<svg
    xmlns="http://www.w3.org/2000/svg"
    viewBox="0 0 32 32"
    width="24" height="24"
    id="vector">
    <path
        id="path"
        d="M 14.706 3.296 C 15.286 2.235 16.714 2.235 17.294 3.296 L 30.29 27.07 C 30.9 28.186 30.111 29.5 28.996 29.5 L 3.004 29.5 C 1.889 29.5 1.1 28.186 1.71 27.07 L 14.706 3.296 Z"
        fill="#ffffff"
        stroke="#b3261e"
        stroke-width="1"/>
    <path
        id="path_1"
        d="M 15.717 11.359 C 15.608 11.445 15.502 11.73 15.462 12.045 C 15.426 12.325 15.369 12.435 15.245 12.467 C 15.131 12.495 15.101 12.442 15.101 12.209 C 15.1 11.929 15.011 11.754 14.868 11.754 C 14.79 11.754 14.672 11.878 14.672 11.961 C 14.672 11.995 14.641 12.048 14.603 12.079 C 14.543 12.128 14.532 12.185 14.511 12.567 C 14.488 12.996 14.456 13.105 14.356 13.105 C 14.281 13.105 14.21 12.965 14.21 12.816 C 14.21 12.619 14.164 12.545 14.043 12.545 C 13.922 12.545 13.764 12.622 13.736 12.695 C 13.725 12.724 13.716 13.013 13.716 13.337 C 13.716 14.018 13.765 13.947 13.271 13.978 C 12.67 14.015 12.672 14.015 12.647 14.168 C 12.616 14.362 12.573 14.423 12.415 14.493 C 12.232 14.574 11.797 14.675 11.425 14.723 C 11.262 14.744 11.102 14.775 11.07 14.792 C 10.986 14.836 11 14.927 11.108 15.03 C 11.183 15.102 11.207 15.161 11.224 15.316 C 11.236 15.422 11.261 15.519 11.279 15.53 C 11.298 15.542 11.55 15.587 11.842 15.631 C 12.351 15.708 12.511 15.755 12.585 15.848 C 12.604 15.872 12.645 16.032 12.676 16.204 C 12.783 16.794 12.892 17.194 13.103 17.763 C 13.478 18.775 13.465 18.71 13.44 19.546 C 13.427 19.945 13.41 20.279 13.402 20.287 C 13.394 20.295 13.263 20.27 13.112 20.229 C 12.813 20.151 12.454 20.095 11.59 19.995 C 10.877 19.912 10.838 19.912 10.729 20.006 C 10.657 20.068 10.637 20.118 10.626 20.262 C 10.609 20.467 10.542 20.356 11.698 22.023 L 12.315 22.913 L 12.529 23.019 C 12.795 23.151 13.314 23.292 13.538 23.292 C 13.728 23.292 13.796 23.241 13.849 23.057 C 13.903 22.874 13.849 22.824 13.358 22.589 C 13.11 22.472 12.876 22.34 12.836 22.298 C 12.732 22.186 12.202 21.304 12.22 21.274 C 12.262 21.206 12.585 21.253 13.627 21.477 C 13.967 21.551 14.287 21.611 14.337 21.611 C 14.442 21.611 14.507 21.557 14.507 21.472 C 14.507 21.395 14.528 21.396 14.991 21.5 C 15.295 21.569 15.471 21.588 15.793 21.589 C 16.195 21.591 16.221 21.587 16.913 21.397 C 18.132 21.063 18.263 21.098 18.833 21.91 C 19.014 22.168 19.13 22.26 19.529 22.469 C 20.066 22.748 20.89 23.034 21.281 23.075 C 21.372 23.085 21.61 23.11 21.809 23.13 C 22.008 23.151 22.196 23.181 22.227 23.197 C 22.257 23.213 22.345 23.341 22.422 23.481 C 23.16 24.826 23.537 25.245 24.883 26.219 L 25.254 26.488 L 25.252 26.068 L 25.25 25.649 L 24.885 25.336 C 24.125 24.684 24.053 24.606 23.873 24.238 C 23.667 23.816 23.479 23.341 23.341 22.897 C 23.246 22.593 23.216 22.536 23.079 22.403 C 22.994 22.321 22.816 22.194 22.683 22.122 C 22.22 21.869 22.021 21.613 21.887 21.1 C 21.815 20.823 21.811 20.581 21.875 20.292 C 21.901 20.174 21.923 20.067 21.923 20.054 C 21.927 19.972 20.985 19.452 20.448 19.239 C 19.897 19.021 19.685 18.973 19.106 18.939 C 18.341 18.893 17.962 18.835 17.264 18.656 C 16.913 18.566 16.333 18.372 16.172 18.29 C 15.698 18.049 14.889 17.193 14.606 16.632 C 14.475 16.373 14.295 15.82 14.214 15.423 C 14.175 15.238 14.144 15.072 14.144 15.053 C 14.144 14.988 14.285 14.946 14.616 14.913 C 15.117 14.863 15.199 14.801 15.199 14.479 C 15.199 14.198 15.149 14.158 14.752 14.119 C 14.572 14.102 14.39 14.074 14.347 14.057 C 14.278 14.03 14.274 14.02 14.314 13.963 C 14.339 13.928 14.716 13.573 15.153 13.175 L 15.947 12.451 L 16.036 12.181 C 16.085 12.033 16.134 11.82 16.145 11.708 C 16.162 11.521 16.156 11.496 16.074 11.399 C 15.968 11.273 15.844 11.259 15.717 11.359 Z"
        fill="#232f34"/>
</svg>
