<svg
    xmlns="http://www.w3.org/2000/svg"
    viewBox="0 0 32 32"
    width="24" height="24"
    id="vector">
    <path
        id="path"
        d="M 5.294 2.5 L 26.706 2.5 C 27.196 2.5 27.678 2.629 28.103 2.874 C 28.528 3.12 28.88 3.472 29.126 3.897 C 29.371 4.322 29.5 4.804 29.5 5.294 L 29.5 26.706 C 29.5 27.196 29.371 27.678 29.126 28.103 C 28.88 28.528 28.528 28.88 28.103 29.126 C 27.678 29.371 27.196 29.5 26.706 29.5 L 5.294 29.5 C 4.804 29.5 4.322 29.371 3.897 29.126 C 3.472 28.88 3.12 28.528 2.874 28.103 C 2.629 27.678 2.5 27.196 2.5 26.706 L 2.5 5.294 C 2.5 4.553 2.795 3.842 3.318 3.318 C 3.842 2.795 4.553 2.5 5.294 2.5 Z"
        fill="#ffffff"
        stroke="#232f34"
        stroke-width="1.5"/>
    <path
        id="path_1"
        d="M 21.28 13.215 L 22.312 11.316 L 20.675 11.05 L 22.238 10.344 L 21.921 8.5 L 23.605 9.968 L 24.712 8.638 L 24.814 10.335 L 26.6 10.967 L 24.721 11.344 L 25.046 13.352 L 23.605 11.701 L 21.28 13.215 Z"
        fill="#ffffff"
        stroke="#232f34"
        stroke-width="0.4"/>
    <path
        id="path_2"
        d="M 20.304 14.61 L 20.304 13.811 L 18.164 13.811 L 18.164 15.573 C 17.783 15.564 17.02 15.591 16.174 15.986 C 15.402 16.352 14.918 16.857 14.686 17.15 L 10.5 17.15 L 10.5 16.178 L 8.101 16.178 L 8.101 17.15 C 8.101 17.15 7.813 17.169 7.189 17.462 C 6.566 17.765 6.408 18.416 6.408 18.416 C 6.408 18.416 6.39 24.892 6.408 26.232 C 6.427 27.571 7.896 27.488 7.896 27.488 C 7.896 27.488 21.987 27.516 23.057 27.488 C 24.126 27.461 24.359 26.222 24.359 26.222 C 24.368 22.636 24.377 19.049 24.387 15.463 L 20.294 14.6 L 20.304 14.61 Z M 10.742 18.948 L 7.887 18.948 L 7.887 17.774 L 10.742 17.774 L 10.742 18.948 Z M 18.239 23.892 C 16.211 23.892 14.565 22.269 14.565 20.269 C 14.565 18.27 16.211 16.646 18.239 16.646 C 20.266 16.646 21.913 18.27 21.913 20.269 C 21.913 22.269 20.266 23.892 18.239 23.892 Z"
        fill="#232f34"/>
    <path
        id="path_3"
        d="M 18.239 22.763 C 19.636 22.763 20.769 21.646 20.769 20.268 C 20.769 18.89 19.636 17.773 18.239 17.773 C 16.842 17.773 15.709 18.89 15.709 20.268 C 15.709 21.646 16.842 22.763 18.239 22.763 Z"
        fill="#ffffff"
        stroke="#232f34"
        stroke-width="0.413932"/>
    <path
        id="path_4"
        d="M 18.238 21.681 C 19.029 21.681 19.671 21.049 19.671 20.269 C 19.671 19.488 19.029 18.856 18.238 18.856 C 17.447 18.856 16.806 19.488 16.806 20.269 C 16.806 21.049 17.447 21.681 18.238 21.681 Z"
        fill="#232f34"/>
    <path
        id="path_5"
        d="M 7.9 4.573 C 8.14 4.527 8.472 4.5 8.795 4.5 C 9.294 4.5 9.617 4.582 9.848 4.773 C 10.033 4.918 10.134 5.145 10.134 5.409 C 10.134 5.845 9.83 6.145 9.451 6.264 L 9.451 6.282 C 9.728 6.373 9.894 6.609 9.986 6.955 C 10.106 7.418 10.19 7.745 10.264 7.873 L 9.783 7.873 C 9.728 7.782 9.645 7.491 9.543 7.073 C 9.433 6.609 9.239 6.436 8.814 6.427 L 8.371 6.427 L 8.371 7.873 L 7.9 7.873 L 7.9 4.573 Z M 8.371 6.091 L 8.851 6.091 C 9.349 6.091 9.673 5.836 9.673 5.455 C 9.673 5.027 9.331 4.836 8.842 4.827 C 8.62 4.827 8.454 4.845 8.38 4.864 L 8.38 6.082 L 8.371 6.091 Z"
        fill="#232f34"/>
    <path
        id="path_6"
        d="M 11.418 6.818 L 11.039 7.864 L 10.559 7.864 L 11.787 4.527 L 12.35 4.527 L 13.587 7.864 L 13.089 7.864 L 12.701 6.818 L 11.418 6.818 Z M 12.609 6.482 L 12.258 5.518 C 12.175 5.3 12.119 5.1 12.073 4.909 L 12.064 4.909 C 12.009 5.109 11.953 5.309 11.879 5.509 L 11.528 6.473 L 12.618 6.473 L 12.609 6.482 Z"
        fill="#232f34"/>
    <path
        id="path_7"
        d="M 14.123 4.573 C 14.409 4.536 14.751 4.5 15.12 4.5 C 15.794 4.5 16.274 4.645 16.588 4.918 C 16.911 5.191 17.096 5.573 17.096 6.118 C 17.096 6.664 16.911 7.109 16.569 7.418 C 16.228 7.727 15.674 7.9 14.963 7.9 C 14.631 7.9 14.354 7.882 14.113 7.864 L 14.113 4.573 L 14.123 4.573 Z M 14.594 7.527 C 14.714 7.545 14.88 7.555 15.064 7.555 C 16.062 7.555 16.606 7.036 16.606 6.136 C 16.606 5.345 16.126 4.845 15.138 4.845 C 14.898 4.845 14.714 4.864 14.594 4.891 L 14.594 7.527 Z"
        fill="#232f34"/>
    <path
        id="path_8"
        d="M 18.222 6.818 L 17.844 7.864 L 17.364 7.864 L 18.591 4.527 L 19.155 4.527 L 20.392 7.864 L 19.893 7.864 L 19.506 6.818 L 18.222 6.818 Z M 19.413 6.482 L 19.062 5.518 C 18.979 5.3 18.924 5.1 18.878 4.909 L 18.868 4.909 C 18.813 5.109 18.758 5.309 18.684 5.509 L 18.333 6.473 L 19.422 6.473 L 19.413 6.482 Z"
        fill="#232f34"/>
    <path
        id="path_9"
        d="M 20.936 4.573 C 21.176 4.527 21.509 4.5 21.832 4.5 C 22.33 4.5 22.654 4.582 22.884 4.773 C 23.069 4.918 23.171 5.145 23.171 5.409 C 23.171 5.845 22.866 6.145 22.487 6.264 L 22.487 6.282 C 22.764 6.373 22.931 6.609 23.023 6.955 C 23.143 7.418 23.226 7.745 23.3 7.873 L 22.82 7.873 C 22.764 7.782 22.681 7.491 22.58 7.073 C 22.469 6.609 22.275 6.436 21.85 6.427 L 21.407 6.427 L 21.407 7.873 L 20.936 7.873 L 20.936 4.573 Z M 21.407 6.091 L 21.887 6.091 C 22.386 6.091 22.709 5.836 22.709 5.455 C 22.709 5.027 22.367 4.836 21.878 4.827 C 21.656 4.827 21.49 4.845 21.416 4.864 L 21.416 6.082 L 21.407 6.091 Z"
        fill="#232f34"/>
</svg>
