<svg xmlns="http://www.w3.org/2000/svg" viewBox="0 0 48 48" width="24" height="24" id="vector">
    <path id="path"
        d="M 24 4 C 13 4 4 13 4 24 C 4 35 13 44 24 44 C 35 44 44 35 44 24 C 44 13 35 4 24 4 Z"
        fill="#29b6f6" />
    <path id="path_1"
        d="M 34 15 L 30.3 34.1 C 30.3 34.1 30.1 35 29.1 35 C 28.5 35 28.2 34.7 28.2 34.7 L 20 28 L 16 26 L 10.9 24.6 C 10.9 24.6 10 24.3 10 23.6 C 10 23 10.9 22.7 10.9 22.7 L 32.2 14.2 C 32.2 14.2 32.9 14 33.3 14 C 33.6 14 33.9 14.1 33.9 14.5 C 34 14.8 34 15 34 15 Z"
        fill="#ffffff" />
    <path id="path_2"
        d="M 23 30.5 L 19.6 33.9 C 19.6 33.9 19.5 34 19.3 34 C 19.2 34 19.2 34 19.1 34 L 20.1 28 L 23 30.5 Z"
        fill="#b0bec5" />
    <path id="path_3"
        d="M 29.9 18.2 C 29.7 18 29.4 17.9 29.2 18.1 L 16 26 C 16 26 18.1 31.9 18.4 32.9 C 18.7 33.9 19 33.9 19 33.9 L 20 27.9 L 29.8 18.8 C 30 18.7 30.1 18.4 29.9 18.2 Z"
        fill="#cfd8dc" />
</svg>
