<svg
    xmlns="http://www.w3.org/2000/svg"
    viewBox="0 0 64 64"
    width="64" height="64"
    id="vector">
    <defs>
        <clipPath id="clip_path_1">
            <path d="M 2 17 C 2 9.929 2 6.393 4.197 4.197 C 6.393 2 9.929 2 17 2 L 47 2 C 54.071 2 57.607 2 59.803 4.197 C 62 6.393 62 9.929 62 17 L 62 47 C 62 54.071 62 57.607 59.803 59.803 C 57.607 62 54.071 62 47 62 L 17 62 C 9.929 62 6.393 62 4.197 59.803 C 2 57.607 2 54.071 2 47 L 2 17 Z"/>
        </clipPath>
    </defs>
    <path
        id="path"
        d="M 2 17 C 2 9.929 2 6.393 4.197 4.197 C 6.393 2 9.929 2 17 2 L 47 2 C 54.071 2 57.607 2 59.803 4.197 C 62 6.393 62 9.929 62 17 L 62 47 C 62 54.071 62 57.607 59.803 59.803 C 57.607 62 54.071 62 47 62 L 17 62 C 9.929 62 6.393 62 4.197 59.803 C 2 57.607 2 54.071 2 47 L 2 17 Z"
        fill="#ffffff"/>
    <g id="group">
        <path
            id="path_1"
            clip-path="url(#clip_path_1)"
            d="M 4.197 59.803 L 2.075 61.925 L 4.197 59.803 Z M 59.803 59.803 L 61.925 61.925 L 59.803 59.803 Z M 59.803 4.197 L 61.925 2.075 L 59.803 4.197 Z M 4.197 4.197 L 2.075 2.075 L 4.197 4.197 Z M 17 5 L 47 5 L 47 -1 L 17 -1 L 17 5 Z M 59 17 L 59 47 L 65 47 L 65 17 L 59 17 Z M 47 59 L 17 59 L 17 65 L 47 65 L 47 59 Z M 5 47 L 5 17 L -1 17 L -1 47 L 5 47 Z M 17 59 C 13.38 59 10.966 58.994 9.17 58.752 C 7.461 58.522 6.766 58.13 6.318 57.682 L 2.075 61.925 C 3.824 63.673 5.996 64.379 8.371 64.699 C 10.659 65.006 13.549 65 17 65 L 17 59 Z M -1 47 C -1 50.451 -1.006 53.341 -0.699 55.629 C -0.379 58.004 0.327 60.176 2.075 61.925 L 6.318 57.682 C 5.87 57.234 5.478 56.54 5.248 54.83 C 5.006 53.034 5 50.62 5 47 L -1 47 Z M 59 47 C 59 50.62 58.994 53.034 58.752 54.83 C 58.522 56.54 58.13 57.234 57.682 57.682 L 61.925 61.925 C 63.673 60.176 64.379 58.004 64.699 55.629 C 65.006 53.341 65 50.451 65 47 L 59 47 Z M 47 65 C 50.451 65 53.341 65.006 55.629 64.699 C 58.004 64.379 60.176 63.673 61.925 61.925 L 57.682 57.682 C 57.234 58.13 56.54 58.522 54.83 58.752 C 53.034 58.994 50.62 59 47 59 L 47 65 Z M 47 5 C 50.62 5 53.034 5.006 54.83 5.248 C 56.54 5.478 57.234 5.87 57.682 6.318 L 61.925 2.075 C 60.176 0.327 58.004 -0.379 55.629 -0.699 C 53.341 -1.006 50.451 -1 47 -1 L 47 5 Z M 65 17 C 65 13.549 65.006 10.659 64.699 8.371 C 64.379 5.996 63.673 3.824 61.925 2.075 L 57.682 6.318 C 58.13 6.766 58.522 7.461 58.752 9.17 C 58.994 10.966 59 13.38 59 17 L 65 17 Z M 17 -1 C 13.549 -1 10.659 -1.006 8.371 -0.699 C 5.996 -0.379 3.824 0.327 2.075 2.075 L 6.318 6.318 C 6.766 5.87 7.461 5.478 9.17 5.248 C 10.966 5.006 13.38 5 17 5 L 17 -1 Z M 5 17 C 5 13.38 5.006 10.966 5.248 9.17 C 5.478 7.461 5.87 6.766 6.318 6.318 L 2.075 2.075 C 0.327 3.824 -0.379 5.996 -0.699 8.371 C -1.006 10.659 -1 13.549 -1 17 L 5 17 Z"
            fill="#232f34"/>
    </g>
    <path
        id="path_2"
        d="M 42.555 25.939 L 44.528 22.339 L 41.4 21.835 L 44.385 20.496 L 43.781 17 L 46.998 19.783 L 49.112 17.261 L 49.308 20.478 L 52.72 21.678 L 49.13 22.391 L 49.752 26.2 L 46.998 23.07 L 42.555 25.939 Z"
        fill="#ffffff"
        stroke="#232f34"
        stroke-width="0.8"/>
    <path
        id="path_3"
        d="M 41.055 28.903 L 41.055 27.361 L 36.892 27.361 L 36.892 30.765 C 36.15 30.747 34.666 30.801 33.019 31.563 C 31.517 32.272 30.576 33.247 30.124 33.815 L 21.979 33.815 L 21.979 31.935 L 17.31 31.935 L 17.31 33.815 C 17.31 33.815 16.749 33.85 15.536 34.418 C 14.324 35.003 14.016 36.262 14.016 36.262 C 14.016 36.262 13.98 48.779 14.016 51.368 C 14.052 53.957 16.912 53.797 16.912 53.797 C 16.912 53.797 44.331 53.85 46.412 53.797 C 48.493 53.744 48.946 51.35 48.946 51.35 C 48.964 44.418 48.982 37.485 49 30.552 L 41.037 28.886 L 41.055 28.903 Z M 22.45 37.29 L 16.894 37.29 L 16.894 35.021 L 22.45 35.021 L 22.45 37.29 Z M 37.037 46.847 C 33.092 46.847 29.888 43.708 29.888 39.843 C 29.888 35.978 33.092 32.84 37.037 32.84 C 40.982 32.84 44.186 35.978 44.186 39.843 C 44.186 43.708 40.982 46.847 37.037 46.847 Z"
        fill="#232f34"/>
    <path
        id="path_4"
        d="M 36.86 45.175 C 39.765 45.175 42.12 42.853 42.12 39.987 C 42.12 37.122 39.765 34.8 36.86 34.8 C 33.955 34.8 31.6 37.122 31.6 39.987 C 31.6 42.853 33.955 45.175 36.86 45.175 Z"
        fill="#ffffff"
        stroke="#232f34"
        stroke-width="0.9"/>
    <path
        id="path_5"
        d="M 36.978 42.874 C 38.623 42.874 39.956 41.559 39.956 39.937 C 39.956 38.315 38.623 37 36.978 37 C 35.333 37 34 38.315 34 39.937 C 34 41.559 35.333 42.874 36.978 42.874 Z"
        fill="#232f34"/>
    <path
        id="path_6"
        d="M 17 9.14 C 17.455 9.053 18.086 9 18.699 9 C 19.645 9 20.258 9.158 20.696 9.525 C 21.047 9.805 21.239 10.243 21.239 10.751 C 21.239 11.591 20.661 12.169 19.943 12.396 L 19.943 12.431 C 20.469 12.606 20.784 13.061 20.959 13.727 C 21.187 14.62 21.344 15.25 21.485 15.495 L 20.574 15.495 C 20.469 15.32 20.311 14.76 20.118 13.954 C 19.908 13.061 19.54 12.729 18.734 12.711 L 17.893 12.711 L 17.893 15.495 L 17 15.495 L 17 9.14 Z M 17.893 12.064 L 18.804 12.064 C 19.75 12.064 20.364 11.573 20.364 10.838 C 20.364 10.015 19.715 9.648 18.787 9.63 C 18.366 9.63 18.051 9.665 17.911 9.7 L 17.911 12.046 L 17.893 12.064 Z"
        fill="#232f34"/>
    <path
        id="path_7"
        d="M 23.675 13.463 L 22.956 15.476 L 22.045 15.476 L 24.375 9.051 L 25.444 9.051 L 27.791 15.476 L 26.845 15.476 L 26.11 13.463 L 23.675 13.463 Z M 25.934 12.815 L 25.269 10.96 C 25.111 10.539 25.006 10.154 24.918 9.787 L 24.901 9.787 C 24.796 10.172 24.691 10.557 24.551 10.942 L 23.885 12.798 L 25.952 12.798 L 25.934 12.815 Z"
        fill="#232f34"/>
    <path
        id="path_8"
        d="M 28.807 9.14 C 29.35 9.07 29.998 9 30.699 9 C 31.978 9 32.889 9.28 33.484 9.805 C 34.097 10.33 34.448 11.066 34.448 12.116 C 34.448 13.167 34.097 14.024 33.449 14.62 C 32.801 15.215 31.75 15.547 30.401 15.547 C 29.771 15.547 29.245 15.512 28.79 15.477 L 28.79 9.14 L 28.807 9.14 Z M 29.701 14.83 C 29.928 14.865 30.244 14.882 30.594 14.882 C 32.486 14.882 33.519 13.884 33.519 12.151 C 33.519 10.628 32.609 9.665 30.734 9.665 C 30.279 9.665 29.928 9.7 29.701 9.753 L 29.701 14.83 Z"
        fill="#232f34"/>
    <path
        id="path_9"
        d="M 36.585 13.463 L 35.867 15.476 L 34.956 15.476 L 37.286 9.051 L 38.355 9.051 L 40.702 15.476 L 39.756 15.476 L 39.02 13.463 L 36.585 13.463 Z M 38.845 12.815 L 38.179 10.96 C 38.022 10.539 37.917 10.154 37.829 9.787 L 37.812 9.787 C 37.706 10.172 37.601 10.557 37.461 10.942 L 36.796 12.798 L 38.863 12.798 L 38.845 12.815 Z"
        fill="#232f34"/>
    <path
        id="path_10"
        d="M 41.735 9.14 C 42.191 9.053 42.821 9 43.435 9 C 44.381 9 44.994 9.158 45.432 9.525 C 45.782 9.805 45.975 10.243 45.975 10.751 C 45.975 11.591 45.397 12.169 44.678 12.396 L 44.678 12.431 C 45.204 12.606 45.519 13.061 45.694 13.727 C 45.922 14.62 46.08 15.25 46.22 15.495 L 45.309 15.495 C 45.204 15.32 45.046 14.76 44.854 13.954 C 44.643 13.061 44.276 12.729 43.47 12.711 L 42.629 12.711 L 42.629 15.495 L 41.735 15.495 L 41.735 9.14 Z M 42.629 12.064 L 43.54 12.064 C 44.486 12.064 45.099 11.573 45.099 10.838 C 45.099 10.015 44.451 9.648 43.522 9.63 C 43.102 9.63 42.786 9.665 42.646 9.7 L 42.646 12.046 L 42.629 12.064 Z"
        fill="#232f34"/>
</svg>
