<svg width="24" height="24" xmlns="http://www.w3.org/2000/svg" viewBox="0 0 48 48" id="vector">
    <path id="path"
        d="M 24 24 M 6 24 C 6 19.228 7.898 14.646 11.272 11.272 C 14.646 7.898 19.228 6 24 6 C 28.772 6 33.354 7.898 36.728 11.272 C 40.102 14.646 42 19.228 42 24 C 42 28.772 40.102 33.354 36.728 36.728 C 33.354 40.102 28.772 42 24 42 C 19.228 42 14.646 40.102 11.272 36.728 C 7.898 33.354 6 28.772 6 24"
        fill="#2196f3" />
    <path id="path_1"
        d="M 24 15.5 M 21.5 15.5 C 21.5 14.837 21.764 14.201 22.232 13.732 C 22.701 13.264 23.337 13 24 13 C 24.663 13 25.299 13.264 25.768 13.732 C 26.236 14.201 26.5 14.837 26.5 15.5 C 26.5 16.163 26.236 16.799 25.768 17.268 C 25.299 17.736 24.663 18 24 18 C 23.337 18 22.701 17.736 22.232 17.268 C 21.764 16.799 21.5 16.163 21.5 15.5"
        fill="#ffffff" />
    <path id="path_2" d="M 22 21 L 26 21 L 26 35 L 22 35 Z" fill="#ffffff" />
</svg>
