<svg
    xmlns="http://www.w3.org/2000/svg"
    viewBox="0 0 32 32"
    width="24" height="24"
    id="vector">
    <path
        id="path"
        d="M 5.294 2.5 L 26.706 2.5 C 27.196 2.5 27.678 2.629 28.103 2.874 C 28.528 3.12 28.88 3.472 29.126 3.897 C 29.371 4.322 29.5 4.804 29.5 5.294 L 29.5 26.706 C 29.5 27.196 29.371 27.678 29.126 28.103 C 28.88 28.528 28.528 28.88 28.103 29.126 C 27.678 29.371 27.196 29.5 26.706 29.5 L 5.294 29.5 C 4.804 29.5 4.322 29.371 3.897 29.126 C 3.472 28.88 3.12 28.528 2.874 28.103 C 2.629 27.678 2.5 27.196 2.5 26.706 L 2.5 5.294 C 2.5 4.553 2.795 3.842 3.318 3.318 C 3.842 2.795 4.553 2.5 5.294 2.5 Z"
        fill="#ffd666"
        stroke="#232f34"
        stroke-width="1.5"/>
    <path
        id="path_1"
        d="M 9.764 25.103 L 4.823 17.955 L 8.941 17.955 L 18.823 25.103 L 9.764 25.103 Z"
        fill="#526e7a"
        stroke="#526e7a"
        stroke-width="0.823529"/>
    <path
        id="path_2"
        d="M 8.529 17.537 L 17.379 24.045"
        fill="#00000000"
        stroke="#ffffff"
        stroke-width="0.411765"/>
    <path
        id="path_3"
        d="M 4.412 17.537 L 9.765 25.059"
        fill="#00000000"
        stroke="#ffffff"
        stroke-width="0.411765"
        stroke-linecap="square"/>
    <path
        id="path_4"
        d="M 6.753 17.394 C 6.674 17.312 6.544 17.31 6.462 17.389 C 6.381 17.468 6.378 17.598 6.457 17.68 L 6.753 17.394 Z M 6.457 17.68 L 6.761 17.994 L 7.057 17.707 L 6.753 17.394 L 6.457 17.68 Z M 7.367 18.621 L 7.974 19.247 L 8.27 18.961 L 7.663 18.334 L 7.367 18.621 Z M 8.58 19.874 L 9.187 20.501 L 9.482 20.215 L 8.876 19.588 L 8.58 19.874 Z M 9.793 21.128 L 10.399 21.755 L 10.695 21.468 L 10.089 20.842 L 9.793 21.128 Z M 11.006 22.382 L 11.612 23.008 L 11.908 22.722 L 11.302 22.095 L 11.006 22.382 Z M 12.219 23.635 L 12.825 24.262 L 13.121 23.976 L 12.515 23.349 L 12.219 23.635 Z M 13.432 24.889 L 13.735 25.202 L 14.031 24.916 L 13.728 24.603 L 13.432 24.889 Z"
        fill="#ffffff"/>
    <path
        id="path_5"
        d="M 25.182 19.112 L 25.795 17.952 L 24.823 17.79 L 25.751 17.359 L 25.563 16.233 L 26.562 17.129 L 27.219 16.317 L 27.279 17.353 L 28.339 17.74 L 27.224 17.969 L 27.417 19.196 L 26.562 18.188 L 25.182 19.112 Z"
        fill="#ffd666"
        stroke="#232f34"
        stroke-width="0.275955"/>
    <path
        id="path_6"
        d="M 24.603 19.963 L 24.603 19.476 L 23.334 19.476 L 23.334 20.552 C 23.107 20.546 22.655 20.563 22.153 20.804 C 21.694 21.028 21.407 21.336 21.269 21.515 L 18.786 21.515 L 18.786 20.921 L 17.362 20.921 L 17.362 21.515 C 17.362 21.515 17.191 21.526 16.821 21.705 C 16.451 21.89 16.357 22.288 16.357 22.288 C 16.357 22.288 16.346 26.242 16.357 27.06 C 16.368 27.878 17.24 27.827 17.24 27.827 C 17.24 27.827 25.602 27.844 26.237 27.827 C 26.871 27.811 27.009 27.055 27.009 27.055 C 27.015 24.865 27.02 22.674 27.026 20.484 L 24.597 19.958 L 24.603 19.963 Z M 18.929 22.613 L 17.235 22.613 L 17.235 21.896 L 18.929 21.896 L 18.929 22.613 Z M 23.378 25.632 C 22.175 25.632 21.198 24.64 21.198 23.419 C 21.198 22.198 22.175 21.207 23.378 21.207 C 24.581 21.207 25.558 22.198 25.558 23.419 C 25.558 24.64 24.581 25.632 23.378 25.632 Z"
        fill="#232f34"/>
    <path
        id="path_7"
        d="M 23.377 24.943 C 24.206 24.943 24.879 24.26 24.879 23.419 C 24.879 22.578 24.206 21.896 23.377 21.896 C 22.548 21.896 21.876 22.578 21.876 23.419 C 21.876 24.26 22.548 24.943 23.377 24.943 Z"
        fill="#ffd666"
        stroke="#232f34"
        stroke-width="0.413932"/>
    <path
        id="path_8"
        d="M 23.377 24.282 C 23.847 24.282 24.227 23.896 24.227 23.419 C 24.227 22.943 23.847 22.557 23.377 22.557 C 22.908 22.557 22.527 22.943 22.527 23.419 C 22.527 23.896 22.908 24.282 23.377 24.282 Z"
        fill="#232f34"/>
    <path
        id="path_9"
        d="M 10.502 11.569 L 10.954 10.715 L 10.238 10.595 L 10.921 10.278 L 10.783 9.449 L 11.519 10.109 L 12.002 9.511 L 12.047 10.274 L 12.827 10.558 L 12.006 10.727 L 12.149 11.631 L 11.519 10.888 L 10.502 11.569 Z"
        fill="#ffd666"
        stroke="#232f34"
        stroke-width="0.20322"/>
    <path
        id="path_10"
        d="M 10.076 12.196 L 10.076 11.837 L 9.141 11.837 L 9.141 12.629 C 8.974 12.625 8.641 12.638 8.271 12.815 C 7.934 12.98 7.723 13.207 7.621 13.339 L 5.792 13.339 L 5.792 12.902 L 4.743 12.902 L 4.743 13.339 C 4.743 13.339 4.617 13.347 4.345 13.479 C 4.073 13.615 4.004 13.908 4.004 13.908 C 4.004 13.908 3.995 16.82 4.004 17.423 C 4.012 18.025 4.654 17.988 4.654 17.988 C 4.654 17.988 10.811 18 11.279 17.988 C 11.746 17.975 11.848 17.418 11.848 17.418 C 11.852 15.806 11.856 14.193 11.86 12.58 L 10.072 12.192 L 10.076 12.196 Z M 5.898 14.147 L 4.65 14.147 L 4.65 13.619 L 5.898 13.619 L 5.898 14.147 Z M 9.174 16.371 C 8.287 16.371 7.568 15.641 7.568 14.741 C 7.568 13.842 8.287 13.112 9.174 13.112 C 10.06 13.112 10.779 13.842 10.779 14.741 C 10.779 15.641 10.06 16.371 9.174 16.371 Z"
        fill="#232f34"/>
    <path
        id="path_11"
        d="M 9.173 15.863 C 9.784 15.863 10.279 15.361 10.279 14.741 C 10.279 14.122 9.784 13.619 9.173 13.619 C 8.563 13.619 8.068 14.122 8.068 14.741 C 8.068 15.361 8.563 15.863 9.173 15.863 Z"
        fill="#ffd666"
        stroke="#232f34"
        stroke-width="0.30483"/>
    <path
        id="path_12"
        d="M 9.173 15.376 C 9.519 15.376 9.799 15.092 9.799 14.741 C 9.799 14.39 9.519 14.106 9.173 14.106 C 8.828 14.106 8.547 14.39 8.547 14.741 C 8.547 15.092 8.828 15.376 9.173 15.376 Z"
        fill="#232f34"/>
    <path
        id="path_13"
        d="M 8.941 5.067 C 9.156 5.025 9.452 5 9.74 5 C 10.185 5 10.473 5.075 10.679 5.251 C 10.844 5.384 10.934 5.593 10.934 5.836 C 10.934 6.237 10.663 6.513 10.325 6.621 L 10.325 6.638 C 10.572 6.722 10.72 6.939 10.803 7.257 C 10.91 7.683 10.984 7.984 11.05 8.101 L 10.621 8.101 C 10.572 8.017 10.498 7.75 10.407 7.365 C 10.309 6.939 10.135 6.78 9.757 6.772 L 9.361 6.772 L 9.361 8.101 L 8.941 8.101 L 8.941 5.067 Z M 9.361 6.463 L 9.79 6.463 C 10.234 6.463 10.523 6.229 10.523 5.878 C 10.523 5.485 10.218 5.309 9.781 5.301 C 9.584 5.301 9.436 5.318 9.37 5.334 L 9.37 6.454 L 9.361 6.463 Z"
        fill="#232f34"/>
    <path
        id="path_14"
        d="M 12.079 7.131 L 11.741 8.092 L 11.313 8.092 L 12.408 5.025 L 12.911 5.025 L 14.014 8.092 L 13.57 8.092 L 13.224 7.131 L 12.079 7.131 Z M 13.142 6.822 L 12.828 5.936 C 12.754 5.735 12.705 5.551 12.664 5.376 L 12.656 5.376 C 12.606 5.56 12.557 5.744 12.491 5.928 L 12.178 6.813 L 13.15 6.813 L 13.142 6.822 Z"
        fill="#232f34"/>
    <path
        id="path_15"
        d="M 14.492 5.067 C 14.747 5.033 15.052 5 15.381 5 C 15.983 5 16.411 5.134 16.691 5.384 C 16.979 5.635 17.144 5.986 17.144 6.488 C 17.144 6.989 16.979 7.399 16.674 7.683 C 16.369 7.967 15.875 8.126 15.241 8.126 C 14.945 8.126 14.698 8.109 14.484 8.092 L 14.484 5.067 L 14.492 5.067 Z M 14.912 7.783 C 15.019 7.8 15.167 7.808 15.332 7.808 C 16.221 7.808 16.707 7.332 16.707 6.504 C 16.707 5.777 16.279 5.318 15.398 5.318 C 15.184 5.318 15.019 5.334 14.912 5.359 L 14.912 7.783 Z"
        fill="#232f34"/>
    <path
        id="path_16"
        d="M 18.149 7.131 L 17.811 8.092 L 17.383 8.092 L 18.478 5.025 L 18.98 5.025 L 20.084 8.092 L 19.639 8.092 L 19.293 7.131 L 18.149 7.131 Z M 19.211 6.822 L 18.898 5.936 C 18.824 5.735 18.774 5.551 18.733 5.376 L 18.725 5.376 C 18.676 5.56 18.626 5.744 18.56 5.928 L 18.247 6.813 L 19.219 6.813 L 19.211 6.822 Z"
        fill="#232f34"/>
    <path
        id="path_17"
        d="M 20.57 5.067 C 20.784 5.025 21.08 5 21.368 5 C 21.813 5 22.101 5.075 22.307 5.251 C 22.472 5.384 22.563 5.593 22.563 5.836 C 22.563 6.237 22.291 6.513 21.953 6.621 L 21.953 6.638 C 22.2 6.722 22.348 6.939 22.431 7.257 C 22.538 7.683 22.612 7.984 22.678 8.101 L 22.25 8.101 C 22.2 8.017 22.126 7.75 22.035 7.365 C 21.937 6.939 21.764 6.78 21.385 6.772 L 20.99 6.772 L 20.99 8.101 L 20.57 8.101 L 20.57 5.067 Z M 20.99 6.463 L 21.418 6.463 C 21.862 6.463 22.151 6.229 22.151 5.878 C 22.151 5.485 21.846 5.309 21.41 5.301 C 21.212 5.301 21.064 5.318 20.998 5.334 L 20.998 6.454 L 20.99 6.463 Z"
        fill="#232f34"/>
</svg>
