<svg xmlns="http://www.w3.org/2000/svg" viewBox="0 0 32 32" width="24" height="24" id="vector">
    <path id="path"
        d="M 2.111 15.907 C 2.111 19.638 3.595 23.22 6.233 25.859 C 8.872 28.497 12.454 29.981 16.185 29.981 C 19.916 29.981 23.498 28.497 26.137 25.859 C 28.775 23.22 30.259 19.638 30.259 15.907 C 30.259 12.176 28.775 8.594 26.137 5.955 C 23.498 3.317 19.916 1.833 16.185 1.833 C 12.454 1.833 8.872 3.317 6.233 5.955 C 3.595 8.594 2.111 12.176 2.111 15.907 Z"
        fill="#000000" />
    <path id="path_1"
        d="M 19.38 8.24 C 20.448 8.564 21.441 9.098 22.3 9.81 C 23.092 10.428 23.654 11.294 23.897 12.269 C 24.14 13.244 24.049 14.273 23.64 15.19 C 23.251 16.081 22.793 16.94 22.27 17.76 C 20.884 19.873 19.389 21.913 17.79 23.87 C 17.749 23.929 17.693 23.976 17.628 24.006 C 17.563 24.036 17.491 24.047 17.42 24.04 C 16.95 24.04 16.48 24.04 16.02 23.94 C 14.659 23.786 13.355 23.306 12.22 22.54 C 10.932 21.693 9.871 20.542 9.13 19.19 C 8.98 18.92 8.82 18.59 8.81 18.57 C 8.353 17.661 8.016 16.696 7.81 15.7 C 7.55 14.23 7.81 13.92 7.93 13.81 C 8.035 13.726 8.158 13.667 8.29 13.64 C 9.836 13.306 11.361 12.885 12.86 12.38 C 13.792 12.076 14.687 11.67 15.53 11.17 C 15.91 10.967 16.249 10.696 16.53 10.37 C 16.637 10.269 16.707 10.135 16.728 9.99 C 16.75 9.844 16.721 9.695 16.646 9.568 C 16.572 9.441 16.457 9.343 16.32 9.29 C 16.097 9.155 15.854 9.057 15.6 9 C 14.97 8.86 14.33 8.76 13.69 8.64 C 13.609 8.633 13.532 8.601 13.47 8.55 C 13.407 8.498 13.362 8.428 13.34 8.35 C 13.325 8.284 13.325 8.216 13.34 8.15 C 13.369 8.062 13.425 7.985 13.5 7.93 C 13.62 7.84 15.53 6.83 19.38 8.24 Z"
        fill="#ffffff" />
    <path id="path_2"
        d="M 12.7 18.2 C 12.6 18.207 12.5 18.18 12.417 18.124 C 12.333 18.068 12.271 17.986 12.24 17.89 C 12.21 17.793 12.213 17.689 12.247 17.593 C 12.281 17.498 12.345 17.416 12.43 17.36 C 12.58 17.26 12.74 17.18 12.9 17.09 L 14 16.45 C 14.076 16.401 14.165 16.375 14.255 16.375 C 14.345 16.375 14.434 16.401 14.51 16.45 C 14.581 16.489 14.637 16.551 14.669 16.625 C 14.702 16.699 14.709 16.781 14.69 16.86 C 14.656 16.986 14.573 17.094 14.46 17.16 C 13.91 17.49 13.38 17.84 12.82 18.16 C 12.783 18.18 12.742 18.194 12.7 18.2 Z"
        fill="#000000" />
    <path id="path_3"
        d="M 16.85 15.64 C 16.749 15.65 16.648 15.627 16.562 15.574 C 16.476 15.522 16.408 15.443 16.37 15.35 C 16.33 15.256 16.323 15.152 16.351 15.054 C 16.378 14.956 16.438 14.87 16.52 14.81 L 17.52 14.02 C 17.66 13.91 17.79 13.79 17.94 13.68 C 17.995 13.62 18.066 13.576 18.145 13.553 C 18.223 13.531 18.307 13.531 18.385 13.553 C 18.464 13.576 18.535 13.62 18.59 13.68 C 18.642 13.742 18.677 13.817 18.691 13.897 C 18.704 13.977 18.697 14.059 18.669 14.135 C 18.64 14.211 18.593 14.278 18.53 14.33 L 17.1 15.49 C 17.022 15.548 16.938 15.598 16.85 15.64 Z"
        fill="#000000" />
    <path id="path_4"
        d="M 19.63 12.07 C 19.63 12.07 19.63 11.96 19.63 11.89 C 19.63 11.82 19.7 11.47 19.73 11.26 C 19.732 11.177 19.756 11.097 19.8 11.027 C 19.844 10.957 19.907 10.901 19.981 10.865 C 20.055 10.828 20.138 10.813 20.22 10.82 C 20.304 10.82 20.387 10.846 20.457 10.893 C 20.527 10.94 20.581 11.006 20.614 11.084 C 20.647 11.162 20.656 11.247 20.64 11.33 C 20.617 11.606 20.574 11.88 20.51 12.15 C 20.486 12.252 20.427 12.343 20.343 12.405 C 20.258 12.467 20.155 12.497 20.05 12.49 C 19.942 12.479 19.842 12.431 19.765 12.355 C 19.689 12.278 19.641 12.178 19.63 12.07 Z"
        fill="#000000" />
    <path id="path_5"
        d="M 18.91 9.87 L 18.77 9.79 L 18.34 9.51 C 18.14 9.39 18.07 9.23 18.17 9.11 C 18.243 9.05 18.335 9.017 18.43 9.017 C 18.525 9.017 18.617 9.05 18.69 9.11 C 18.887 9.218 19.078 9.338 19.26 9.47 C 19.302 9.49 19.337 9.521 19.362 9.559 C 19.387 9.598 19.401 9.642 19.403 9.688 C 19.404 9.734 19.393 9.78 19.37 9.82 C 19.307 9.872 19.229 9.905 19.148 9.914 C 19.066 9.923 18.983 9.908 18.91 9.87 Z"
        fill="#000000" />
    <path id="path_6"
        d="M 9.13 19.19 C 9.13 19.19 9.13 19.27 9.2 19.31 C 9.24 19.385 9.283 19.459 9.33 19.53 C 9.38 19.61 9.44 19.72 9.53 19.85 L 10.33 19.34 C 10.401 19.285 10.45 19.207 10.47 19.12 C 10.49 19.032 10.48 18.94 10.44 18.86 C 10.398 18.775 10.327 18.708 10.24 18.67 C 10.16 18.639 10.07 18.639 9.99 18.67 C 9.686 18.813 9.398 18.987 9.13 19.19 Z"
        fill="#000000" />
    <path id="path_7"
        d="M 16.72 8.64 L 16.58 8.64 L 16.11 8.55 C 15.9 8.55 15.79 8.42 15.85 8.34 C 15.917 8.292 15.994 8.259 16.076 8.245 C 16.157 8.231 16.241 8.236 16.32 8.26 L 16.93 8.39 C 17.08 8.39 17.15 8.51 17.11 8.57 C 17.07 8.63 16.92 8.65 16.72 8.64 Z"
        fill="#000000" />
</svg>
