<svg
    xmlns="http://www.w3.org/2000/svg"
    viewBox="0 0 64 64"
    width="64" height="64"
    id="vector">
    <path
        id="path"
        d="M 17 3.5 L 47 3.5 C 50.578 3.5 53.111 3.503 55.03 3.761 C 56.906 4.013 57.969 4.484 58.743 5.257 C 59.516 6.031 59.987 7.094 60.239 8.97 C 60.497 10.889 60.5 13.422 60.5 17 L 60.5 48.066 C 60.5 51.644 60.497 54.176 60.239 56.096 C 59.987 57.972 59.516 59.035 58.743 59.809 C 57.969 60.582 56.906 61.053 55.03 61.305 C 53.111 61.563 50.578 61.566 47 61.566 L 17 61.566 C 13.422 61.566 10.889 61.563 8.97 61.305 C 7.094 61.053 6.031 60.582 5.257 59.809 C 4.484 59.035 4.013 57.972 3.761 56.096 C 3.503 54.176 3.5 51.644 3.5 48.066 L 3.5 17 C 3.5 13.422 3.503 10.889 3.761 8.97 C 4.013 7.094 4.484 6.031 5.257 5.257 C 6.031 4.484 7.094 4.013 8.97 3.761 C 10.889 3.503 13.422 3.5 17 3.5 Z"
        fill="#ffd666"
        stroke="#232f34"
        stroke-width="3"/>
    <path
        id="path_1"
        d="M 20.351 50.818 L 10.285 36.47 L 18.673 36.47 L 38.806 50.818 L 20.351 50.818 Z"
        fill="#526e7a"
        stroke="#526e7a"
        stroke-width="1.67768"/>
    <path
        id="path_2"
        d="M 17.834 35.63 L 35.864 48.694"
        fill="#00000000"
        stroke="#ffffff"
        stroke-width="0.838841"/>
    <path
        id="path_3"
        d="M 9.446 35.63 L 20.351 50.73"
        fill="#00000000"
        stroke="#ffffff"
        stroke-width="0.838841"
        stroke-linecap="square"/>
    <path
        id="path_4"
        d="M 14.214 35.336 C 14.051 35.171 13.786 35.169 13.62 35.331 C 13.455 35.493 13.453 35.759 13.615 35.924 L 14.214 35.336 Z M 13.615 35.924 L 14.233 36.553 L 14.831 35.966 L 14.214 35.336 L 13.615 35.924 Z M 15.468 37.812 L 16.704 39.07 L 17.302 38.482 L 16.067 37.224 L 15.468 37.812 Z M 17.939 40.328 L 19.175 41.586 L 19.773 40.999 L 18.538 39.74 L 17.939 40.328 Z M 20.41 42.845 L 21.646 44.103 L 22.244 43.515 L 21.009 42.257 L 20.41 42.845 Z M 22.881 45.361 L 24.116 46.619 L 24.715 46.032 L 23.479 44.773 L 22.881 45.361 Z M 25.352 47.878 L 26.587 49.136 L 27.186 48.548 L 25.95 47.29 L 25.352 47.878 Z M 27.823 50.394 L 28.441 51.023 L 29.039 50.436 L 28.421 49.807 L 27.823 50.394 Z"
        fill="#ffffff"/>
    <path
        id="path_5"
        d="M 19.842 51.108 L 9.691 36.136 L 18.15 36.136 L 38.452 51.108 L 19.842 51.108 Z"
        fill="#526e7a"
        stroke="#526e7a"
        stroke-width="0.823529"/>
    <path
        id="path_6"
        d="M 8.847 35.26 L 19.843 51.016"
        fill="#00000000"
        stroke="#ffffff"
        stroke-width="0.411765"
        stroke-linecap="square"/>
    <path
        id="path_7"
        d="M 13.502 35.118 C 13.423 35.036 13.293 35.032 13.211 35.11 C 13.128 35.189 13.125 35.319 13.203 35.402 L 13.502 35.118 Z M 13.203 35.402 L 13.49 35.704 L 13.789 35.421 L 13.502 35.118 L 13.203 35.402 Z M 14.066 36.311 L 14.641 36.917 L 14.939 36.633 L 14.364 36.027 L 14.066 36.311 Z M 15.215 37.522 L 15.79 38.128 L 16.089 37.845 L 15.514 37.239 L 15.215 37.522 Z M 16.365 38.734 L 16.941 39.34 L 17.239 39.057 L 16.664 38.451 L 16.365 38.734 Z M 17.515 39.946 L 18.09 40.552 L 18.389 40.269 L 17.814 39.663 L 17.515 39.946 Z M 18.666 41.158 L 19.24 41.764 L 19.539 41.481 L 18.964 40.875 L 18.666 41.158 Z M 19.816 42.37 L 20.39 42.976 L 20.689 42.693 L 20.114 42.087 L 19.816 42.37 Z M 20.965 43.582 L 21.541 44.188 L 21.839 43.905 L 21.264 43.299 L 20.965 43.582 Z M 22.115 44.794 L 22.691 45.4 L 22.989 45.117 L 22.414 44.511 L 22.115 44.794 Z M 23.265 46.006 L 23.84 46.612 L 24.139 46.329 L 23.564 45.723 L 23.265 46.006 Z M 24.416 47.218 L 24.99 47.824 L 25.289 47.541 L 24.714 46.935 L 24.416 47.218 Z M 25.566 48.43 L 26.14 49.036 L 26.439 48.753 L 25.864 48.147 L 25.566 48.43 Z M 26.715 49.642 L 27.291 50.248 L 27.589 49.965 L 27.014 49.359 L 26.715 49.642 Z M 27.865 50.854 L 28.153 51.157 L 28.452 50.874 L 28.164 50.571 L 27.865 50.854 Z"
        fill="#ffffff"/>
    <path
        id="path_8"
        d="M 51.737 38.631 L 52.995 36.202 L 51 35.862 L 52.905 34.958 L 52.519 32.6 L 54.571 34.477 L 55.921 32.776 L 56.045 34.947 L 58.222 35.756 L 55.932 36.237 L 56.329 38.807 L 54.571 36.695 L 51.737 38.631 Z"
        fill="#ffd666"
        stroke="#232f34"
        stroke-width="0.6"/>
    <path
        id="path_9"
        d="M 50.552 40.563 L 50.552 39.6 L 47.944 39.6 L 47.944 41.724 C 47.479 41.713 46.549 41.746 45.517 42.222 C 44.576 42.665 43.986 43.273 43.703 43.627 L 38.6 43.627 L 38.6 42.454 L 35.674 42.454 L 35.674 43.627 C 35.674 43.627 35.322 43.649 34.563 44.003 C 33.803 44.368 33.61 45.154 33.61 45.154 C 33.61 45.154 33.588 52.965 33.61 54.58 C 33.633 56.195 35.425 56.095 35.425 56.095 C 35.425 56.095 52.604 56.129 53.909 56.095 C 55.213 56.062 55.496 54.569 55.496 54.569 C 55.507 50.243 55.519 45.917 55.53 41.591 L 50.541 40.551 L 50.552 40.563 Z M 38.895 45.796 L 35.413 45.796 L 35.413 44.379 L 38.895 44.379 L 38.895 45.796 Z M 48.035 51.759 C 45.562 51.759 43.555 49.8 43.555 47.389 C 43.555 44.977 45.562 43.019 48.035 43.019 C 50.507 43.019 52.514 44.977 52.514 47.389 C 52.514 49.8 50.507 51.759 48.035 51.759 Z"
        fill="#232f34"/>
    <path
        id="path_10"
        d="M 48.034 50.397 C 49.737 50.397 51.118 49.05 51.118 47.388 C 51.118 45.726 49.737 44.379 48.034 44.379 C 46.33 44.379 44.95 45.726 44.95 47.388 C 44.95 49.05 46.33 50.397 48.034 50.397 Z"
        fill="#ffd666"
        stroke="#232f34"
        stroke-width="0.5"/>
    <path
        id="path_11"
        d="M 48.034 49.093 C 48.998 49.093 49.78 48.331 49.78 47.39 C 49.78 46.449 48.998 45.686 48.034 45.686 C 47.069 45.686 46.287 46.449 46.287 47.39 C 46.287 48.331 47.069 49.093 48.034 49.093 Z"
        fill="#232f34"/>
    <path
        id="path_12"
        d="M 22.173 23.69 L 23.15 21.801 L 21.6 21.537 L 23.08 20.834 L 22.78 19 L 24.375 20.46 L 25.423 19.137 L 25.52 20.825 L 27.211 21.455 L 25.432 21.829 L 25.74 23.827 L 24.375 22.184 L 22.173 23.69 Z"
        fill="#ffd666"
        stroke="#232f34"
        stroke-width="0.5"/>
    <path
        id="path_13"
        d="M 21.077 24.923 L 21.077 24.2 L 19.127 24.2 L 19.127 25.795 C 18.779 25.787 18.084 25.812 17.312 26.17 C 16.608 26.502 16.167 26.959 15.955 27.225 L 12.139 27.225 L 12.139 26.344 L 9.951 26.344 L 9.951 27.225 C 9.951 27.225 9.688 27.241 9.12 27.507 C 8.552 27.781 8.408 28.371 8.408 28.371 C 8.408 28.371 8.391 34.238 8.408 35.451 C 8.425 36.664 9.765 36.589 9.765 36.589 C 9.765 36.589 22.612 36.614 23.587 36.589 C 24.563 36.564 24.775 35.443 24.775 35.443 C 24.783 32.194 24.792 28.945 24.8 25.696 L 21.069 24.915 L 21.077 24.923 Z M 12.359 28.853 L 9.756 28.853 L 9.756 27.79 L 12.359 27.79 L 12.359 28.853 Z M 19.195 33.332 C 17.346 33.332 15.845 31.861 15.845 30.05 C 15.845 28.238 17.346 26.768 19.195 26.768 C 21.043 26.768 22.544 28.238 22.544 30.05 C 22.544 31.861 21.043 33.332 19.195 33.332 Z"
        fill="#232f34"/>
    <path
        id="path_14"
        d="M 19.194 32.311 C 20.468 32.311 21.5 31.299 21.5 30.051 C 21.5 28.802 20.468 27.791 19.194 27.791 C 17.92 27.791 16.887 28.802 16.887 30.051 C 16.887 31.299 17.92 32.311 19.194 32.311 Z"
        fill="#ffd666"
        stroke="#232f34"
        stroke-width="0.5"/>
    <path
        id="path_15"
        d="M 19.194 31.331 C 19.915 31.331 20.5 30.758 20.5 30.051 C 20.5 29.344 19.915 28.771 19.194 28.771 C 18.473 28.771 17.888 29.344 17.888 30.051 C 17.888 30.758 18.473 31.331 19.194 31.331 Z"
        fill="#232f34"/>
    <path
        id="path_16"
        d="M 18 9.14 C 18.455 9.053 19.086 9 19.699 9 C 20.645 9 21.258 9.158 21.696 9.525 C 22.047 9.805 22.239 10.243 22.239 10.751 C 22.239 11.591 21.661 12.169 20.943 12.396 L 20.943 12.431 C 21.469 12.606 21.784 13.061 21.959 13.727 C 22.187 14.62 22.344 15.25 22.485 15.495 L 21.574 15.495 C 21.469 15.32 21.311 14.76 21.118 13.954 C 20.908 13.061 20.54 12.729 19.734 12.711 L 18.893 12.711 L 18.893 15.495 L 18 15.495 L 18 9.14 Z M 18.893 12.064 L 19.804 12.064 C 20.75 12.064 21.364 11.573 21.364 10.838 C 21.364 10.015 20.715 9.648 19.787 9.63 C 19.366 9.63 19.051 9.665 18.911 9.7 L 18.911 12.046 L 18.893 12.064 Z"
        fill="#232f34"/>
    <path
        id="path_17"
        d="M 24.675 13.463 L 23.956 15.476 L 23.045 15.476 L 25.375 9.051 L 26.444 9.051 L 28.791 15.476 L 27.845 15.476 L 27.11 13.463 L 24.675 13.463 Z M 26.934 12.815 L 26.269 10.96 C 26.111 10.539 26.006 10.154 25.918 9.787 L 25.901 9.787 C 25.796 10.172 25.691 10.557 25.551 10.942 L 24.885 12.798 L 26.952 12.798 L 26.934 12.815 Z"
        fill="#232f34"/>
    <path
        id="path_18"
        d="M 29.807 9.14 C 30.35 9.07 30.998 9 31.699 9 C 32.978 9 33.889 9.28 34.484 9.805 C 35.097 10.33 35.448 11.066 35.448 12.116 C 35.448 13.167 35.097 14.024 34.449 14.62 C 33.801 15.215 32.75 15.547 31.401 15.547 C 30.771 15.547 30.245 15.512 29.79 15.477 L 29.79 9.14 L 29.807 9.14 Z M 30.701 14.83 C 30.928 14.865 31.244 14.882 31.594 14.882 C 33.486 14.882 34.519 13.884 34.519 12.151 C 34.519 10.628 33.609 9.665 31.734 9.665 C 31.279 9.665 30.928 9.7 30.701 9.753 L 30.701 14.83 Z"
        fill="#232f34"/>
    <path
        id="path_19"
        d="M 37.585 13.463 L 36.867 15.476 L 35.956 15.476 L 38.286 9.051 L 39.355 9.051 L 41.702 15.476 L 40.756 15.476 L 40.02 13.463 L 37.585 13.463 Z M 39.845 12.815 L 39.179 10.96 C 39.022 10.539 38.917 10.154 38.829 9.787 L 38.812 9.787 C 38.706 10.172 38.601 10.557 38.461 10.942 L 37.796 12.798 L 39.863 12.798 L 39.845 12.815 Z"
        fill="#232f34"/>
    <path
        id="path_20"
        d="M 42.735 9.14 C 43.191 9.053 43.821 9 44.435 9 C 45.381 9 45.994 9.158 46.432 9.525 C 46.782 9.805 46.975 10.243 46.975 10.751 C 46.975 11.591 46.397 12.169 45.678 12.396 L 45.678 12.431 C 46.204 12.606 46.519 13.061 46.694 13.727 C 46.922 14.62 47.08 15.25 47.22 15.495 L 46.309 15.495 C 46.204 15.32 46.046 14.76 45.854 13.954 C 45.643 13.061 45.276 12.729 44.47 12.711 L 43.629 12.711 L 43.629 15.495 L 42.735 15.495 L 42.735 9.14 Z M 43.629 12.064 L 44.54 12.064 C 45.486 12.064 46.099 11.573 46.099 10.838 C 46.099 10.015 45.451 9.648 44.522 9.63 C 44.102 9.63 43.786 9.665 43.646 9.7 L 43.646 12.046 L 43.629 12.064 Z"
        fill="#232f34"/>
</svg>
