<svg
    xmlns="http://www.w3.org/2000/svg"
    viewBox="0 0 30 32"
    width="25" height="26"
    id="vector">
    <path
        id="path"
        d="M 28 5.8 L 28 23 C 28 25.4 26 27.4 23.6 27.4 L 20 27.4 C 19.3 27.4 18.5 27.7 18 28.3 L 16.2 30.3 C 15.8 30.7 15.2 30.7 14.8 30.3 L 13 28.3 C 12.5 27.7 11.8 27.4 11 27.4 L 6.4 27.4 C 4 27.4 2 25.4 2 23 L 2 5.8 C 2 3.4 4 1.4 6.4 1.4 L 23.6 1.4 C 26 1.4 28 3.4 28 5.8 Z"
        fill="#ffffff"
        stroke="#b92025"
        stroke-width="1"/>
    <path
        id="path_1"
        d="M 14.1 5.8 C 13.1 6 13 6.1 12.6 6.9 C 12.3 7.7 12.3 7.7 12.7 7.7 C 13.4 6.9 14.7 6.3 17.1 6.4 C 18.7 6.4 20.2 6.9 20.7 8.7 C 20.7 9.3 16.3 9.2 16.4 9.6 C 16.5 9.9 16.6 10.6 17 10.6 C 18.1 10.6 18.3 12 18.3 12.9 C 19.4 13 20.7 13.1 21.3 14.2 C 21.6 14.8 21.9 14.9 22.1 14.5 C 22.3 14.2 22.2 10.9 22 10.2 C 22 9.5 22.8 10 22.8 9.4 C 22.8 8.9 22.4 8.4 21.9 8.4 C 20.7 8.3 20.8 6 19.1 5.7 C 18.1 5.5 15 5.5 14.1 5.8 Z M 21.3 11.3 C 21.3 11.8 21.1 11.9 20.3 12.1 C 19.6 12.2 18.9 12 18.9 11.7 C 18.9 11.5 19.8 11 20.4 10.8 C 21 10.6 21.3 10.8 21.3 11.3 Z"
        fill="#000000"/>
    <path
        id="path_2"
        d="M 9.4 8.6 C 8.1 8.8 7.8 9 7.3 10.2 C 6.9 11.1 6.8 11.3 6.5 11.3 C 5.7 11.3 5.2 12.7 6 12.8 C 6.3 12.8 6.4 12.9 6.2 13.2 C 6 13.7 6 17.4 6.2 17.6 C 6.4 17.8 7.5 17.8 7.9 17.7 C 8.2 17.6 8.1 17 8.1 16.7 C 8.9 16.7 9.8 16.9 10.4 16.3 C 10.9 15.8 11.4 15.7 11.7 15 C 12.7 12.6 15.3 12.9 17.5 12.8 C 17.5 12.2 17.4 11.4 16.5 11.4 C 15.7 11.4 15.5 9.1 14.4 8.8 C 13.8 8.5 10.4 8.4 9.4 8.6 Z M 14.4 9.6 C 14.8 9.8 15.9 11.5 15.6 11.8 C 14.6 12.8 9.2 12.7 7.8 11.9 C 7.1 11.5 8.7 9.8 9.2 9.5 C 9.7 9.2 12.9 8.9 14.4 9.6 Z M 9.4 14.6 C 9.4 14.9 9.3 14.9 8.6 15 C 7.5 15.1 7.2 14.9 7.2 14.2 C 7.2 13.7 7.2 13.7 7.5 13.7 C 8 13.6 9.5 14 9.4 14.6 Z"
        fill="#000000"/>
    <path
        id="path_3"
        d="M 13 14.2 C 12.4 14.8 12.6 16.4 11.6 16.5 C 11.2 16.5 11.1 16.6 10.9 17 C 10.4 18 11.6 17.8 11.5 18.1 C 11.3 18.5 11.3 22.4 11.5 22.6 C 11.7 22.8 13.2 22.9 13.4 22.6 C 13.6 22.4 13.6 22 13.6 21.7 L 20.3 21.7 L 20.4 22.7 C 21 22.7 22.2 23 22.4 22.4 C 22.6 22 22.5 18.7 22.3 18.2 C 22.1 17.7 22.9 18.1 22.9 17.5 C 22.9 17 22.5 16.5 22.1 16.5 C 21.7 16.5 21.6 16.4 21.2 15.4 C 20.6 13.8 20.4 13.8 17.1 13.7 C 16.1 13.6 13.9 13.3 13 14.2 Z M 19.7 14.7 C 20 14.9 20.6 16.1 20.6 16.6 C 20.7 17.9 12.7 17.7 12.8 16.6 C 12.9 15.9 13.4 14.8 14.1 14.6 C 14.8 14.4 19.3 14.4 19.7 14.7 Z M 14.7 19.9 C 14.6 20.1 12.8 20.2 12.6 19.9 C 12.4 19.7 12.4 18.9 12.5 18.8 C 12.9 18.4 14.9 19.3 14.7 19.9 Z M 21.1 18.8 C 21.4 19.1 21.3 19.7 21 19.9 C 20.7 20.1 19 20.2 19 19.7 C 19 19.1 20.7 18.4 21.1 18.8 Z"
        fill="#000000"/>
</svg>
