<svg
    xmlns="http://www.w3.org/2000/svg"
    viewBox="0 0 30 32"
    width="25" height="26"
    id="vector">
    <path
        id="path"
        d="M 28 5.8 L 28 23 C 28 25.4 26 27.4 23.6 27.4 L 20 27.4 C 19.3 27.4 18.5 27.7 18 28.3 L 16.2 30.3 C 15.8 30.7 15.2 30.7 14.8 30.3 L 13 28.3 C 12.5 27.7 11.8 27.4 11 27.4 L 6.4 27.4 C 4 27.4 2 25.4 2 23 L 2 5.8 C 2 3.4 4 1.4 6.4 1.4 L 23.6 1.4 C 26 1.4 28 3.4 28 5.8 Z"
        fill="#ffffff"
        stroke="#b92025"
        stroke-width="1"/>
    <path
        id="path_1"
        d="M 13.1 12.1 L 12.3 7.5 L 14.6 9.4 L 16.1 7.3 L 16.4 9.7 L 18.3 8.1 L 18.2 10.8 L 19.7 11.2 L 18.1 13.3 L 17.4 12.8 L 18.2 11.7 L 17.3 11.5 L 17.4 10 L 15.8 11.3 L 15.6 9.6 L 14.8 10.7 L 13.6 9.7 L 14 12 L 13.1 12.1 Z"
        fill="#000000"/>
    <path
        id="path_2"
        d="M 17.3 20 C 16.4 20 15.3 20 14.7 19.6 C 14.7 19.4 14.6 19.2 14.6 18.9 C 14.9 18.3 15 17.5 14.7 16.9 C 15.3 14.6 17.5 13.8 21.1 14 C 21.1 14 22.6 11.5 27 10.8 L 27 20 L 22.1 20 C 22.3 18.6 21.1 17.2 19.7 17.3 C 18.2 17.2 17.1 18.6 17.3 20 Z M 22.5 14.2 L 26.5 14.2 L 26.5 12.3 C 25.1 12.6 23.7 13.2 22.5 14.2 Z M 15.3 17.5 C 17.3 17.4 17.5 16.3 16.9 15.3 C 16 15.7 15.4 16.3 15.2 17.3 C 15.2 17.3 15.2 17.4 15.3 17.5 Z"
        fill="#000000"/>
    <path
        id="path_3"
        d="M 19.7 17.7 C 20.8 17.7 21.7 18.6 21.7 19.7 C 21.7 20.8 20.8 21.7 19.7 21.7 C 18.6 21.7 17.7 20.8 17.7 19.7 C 17.7 18.6 18.6 17.7 19.7 17.7 Z M 19.7 18.8 C 20.2 18.8 20.6 19.2 20.6 19.7 C 20.6 20.2 20.2 20.6 19.7 20.6 C 19.2 20.6 18.8 20.2 18.8 19.7 C 18.8 19.2 19.2 18.8 19.7 18.8 Z"
        fill="#000000"/>
    <path
        id="path_4"
        d="M 9.2 17.7 C 10.3 17.7 11.2 18.6 11.2 19.7 C 11.2 20.8 10.3 21.7 9.2 21.7 C 8.1 21.7 7.2 20.8 7.2 19.7 C 7.2 18.6 8.1 17.7 9.2 17.7 Z M 9.2 18.8 C 9.7 18.8 10 19.2 10 19.7 C 10 20.2 9.6 20.6 9.2 20.6 C 8.7 20.6 8.3 20.2 8.3 19.7 C 8.3 19.2 8.7 18.8 9.2 18.8 Z"
        fill="#000000"/>
    <path
        id="path_5"
        d="M 13.9 15.5 L 13.8 16.5 C 14.7 16.9 14.5 18.3 14.1 18.9 C 13.6 19.9 12.6 19.9 11.6 19.9 C 11.8 18.5 10.6 17.2 9.2 17.2 C 7.8 17.2 6.6 18.5 6.8 19.9 L 3 19.9 L 3 10.8 C 5.5 10.4 8 10.7 10.5 11.2 C 11.3 11.4 11.6 11.4 12.3 12.3 C 13 13.2 13.9 14.5 13.9 15.5 Z M 13.3 14.6 C 10.4 15.1 12 16.7 13.4 16.5 L 13.5 15.5 C 13.5 15.2 13.4 14.9 13.3 14.6 Z M 6.2 14.2 L 12 14.2 C 10.7 12.4 8.5 12 6.2 11.9 L 6.2 14.2 Z M 5.2 14.2 L 5.2 12 C 4.6 12 4 12.1 3.4 12.3 L 3.4 14.2 L 5.2 14.2 Z"
        fill="#000000"/>
</svg>
