<svg
    xmlns="http://www.w3.org/2000/svg"
    viewBox="0 0 32 32"
    width="24" height="24"
    id="vector">
    <path
        id="path"
        d="M 14.706 3.296 C 15.286 2.235 16.714 2.235 17.294 3.296 L 30.29 27.07 C 30.9 28.186 30.111 29.5 28.996 29.5 L 3.004 29.5 C 1.889 29.5 1.1 28.186 1.71 27.07 L 14.706 3.296 Z"
        fill="#ffffff"
        stroke="#b3261e"
        stroke-width="1.5"/>
    <path
        id="path_1"
        d="M 15.023 20.983 C 14.831 20.518 13.722 13.408 14.066 12.205 C 14.401 11.031 15.004 11.019 15.809 11.002 C 15.829 11.002 15.85 11.002 15.871 11.001 C 16.733 10.983 17.515 11.165 17.703 12.232 C 17.891 13.299 16.937 20.518 16.773 20.983 C 16.609 21.448 16.363 21.585 15.953 21.585 C 15.433 21.585 15.215 21.448 15.023 20.983 Z M 15.925 25.852 C 16.922 25.852 17.73 25.044 17.73 24.047 C 17.73 23.05 16.922 22.242 15.925 22.242 C 14.928 22.242 14.12 23.05 14.12 24.047 C 14.12 25.044 14.928 25.852 15.925 25.852 Z"
        fill="#232f34"/>
</svg>
