<svg
    xmlns="http://www.w3.org/2000/svg"
    viewBox="0 0 32 32"
    width="24" height="24"
    id="vector">
    <path
        id="path"
        d="M 8.4 2.5 L 16.424 2.5 L 23.6 2.5 C 24.728 2.5 25.545 2.5 26.187 2.553 C 26.823 2.605 27.243 2.705 27.589 2.881 C 28.247 3.217 28.783 3.752 29.118 4.411 C 29.295 4.757 29.395 5.177 29.447 5.814 C 29.5 6.455 29.5 7.272 29.5 8.4 L 29.5 23.6 C 29.5 24.728 29.5 25.545 29.447 26.187 C 29.395 26.823 29.295 27.243 29.118 27.589 C 28.783 28.247 28.247 28.783 27.589 29.118 C 27.243 29.295 26.823 29.395 26.187 29.447 C 25.545 29.5 24.728 29.5 23.6 29.5 L 19.394 29.5 L 8.4 29.5 C 7.272 29.5 6.455 29.5 5.814 29.447 C 5.177 29.395 4.757 29.295 4.411 29.118 C 3.752 28.783 3.217 28.247 2.881 27.589 C 2.705 27.243 2.605 26.823 2.553 26.187 C 2.5 25.545 2.5 24.728 2.5 23.6 L 2.5 8.4 C 2.5 7.272 2.5 6.455 2.553 5.814 C 2.605 5.177 2.705 4.757 2.881 4.411 C 3.217 3.752 3.752 3.217 4.411 2.881 C 4.757 2.705 5.177 2.605 5.814 2.553 C 6.455 2.5 7.272 2.5 8.4 2.5 Z"
        fill="#ffffff"
        stroke="#232f34"
        stroke-width="1"/>
    <path
        id="path_1"
        d="M 15.323 5.254 C 14.188 5.553 13.99 5.711 13.59 6.624 C 13.176 7.571 13.189 7.652 13.741 7.652 C 14.632 6.624 16.171 5.962 19.043 6.039 C 21.025 6.092 22.809 6.624 23.455 8.887 C 23.455 9.626 18.07 9.437 18.287 9.961 C 18.413 10.266 18.58 11.147 19.022 11.147 C 20.333 11.147 20.585 12.902 20.662 13.892 C 21.979 14.054 23.616 14.152 24.305 15.476 C 24.688 16.212 25.042 16.32 25.332 15.788 C 25.536 15.414 25.461 11.465 25.233 10.606 C 25.025 9.821 26 10.465 26 9.686 C 26 9.02 25.574 8.514 24.962 8.453 C 23.538 8.312 23.607 5.531 21.582 5.155 C 20.251 4.907 16.407 4.968 15.323 5.254 Z M 9.648 8.656 C 8.061 8.902 7.67 9.212 7.081 10.692 C 6.624 11.842 6.526 11.972 6.118 11.976 C 5.101 11.984 4.527 13.668 5.503 13.778 C 5.917 13.825 5.946 13.871 5.8 14.247 C 5.557 14.874 5.593 19.356 5.842 19.601 C 6.055 19.809 7.449 19.875 7.916 19.7 C 8.307 19.553 8.184 18.799 8.184 18.469 C 9.113 18.469 10.268 18.702 10.97 17.984 C 11.615 17.324 12.214 17.31 12.603 16.371 C 13.788 13.509 16.996 13.879 19.637 13.727 C 19.598 12.958 19.457 11.979 18.453 11.979 C 17.477 11.979 17.29 9.216 15.904 8.826 C 15.005 8.573 10.905 8.461 9.648 8.656 Z M 15.709 9.878 C 16.188 10.074 17.566 12.153 17.126 12.584 C 15.903 13.783 9.339 13.652 7.682 12.649 C 6.853 12.147 8.809 10.036 9.404 9.746 C 10 9.456 13.86 9.12 15.709 9.878 Z M 24.134 11.965 C 24.134 12.565 23.9 12.742 22.931 12.88 C 22.051 13.004 21.249 12.777 21.249 12.403 C 21.249 12.154 22.305 11.537 23.116 11.312 C 23.724 11.143 24.134 11.406 24.134 11.965 Z M 9.681 16.011 C 9.632 16.347 9.518 16.395 8.655 16.439 C 7.342 16.506 6.996 16.304 6.996 15.468 C 6.996 14.877 7.04 14.808 7.416 14.808 C 7.955 14.808 9.781 15.316 9.681 16.011 Z M 14.027 15.513 C 13.308 16.215 13.507 18.156 12.284 18.273 C 11.849 18.314 11.673 18.444 11.46 18.882 C 10.89 20.056 12.362 19.822 12.153 20.258 C 11.914 20.758 11.864 25.446 12.095 25.719 C 12.347 26.017 14.134 26.047 14.428 25.759 C 14.702 25.49 14.632 24.976 14.632 24.627 L 22.756 24.627 L 22.861 25.875 C 23.576 25.906 25.025 26.3 25.338 25.508 C 25.534 25.012 25.454 21.013 25.235 20.342 C 25.028 19.709 26 20.226 26 19.505 C 26 18.844 25.573 18.333 24.97 18.272 C 24.497 18.224 24.409 18.111 23.912 16.889 C 23.137 14.984 22.944 14.905 18.958 14.849 C 17.745 14.832 15.08 14.48 14.027 15.513 Z M 22.201 16.095 C 22.59 16.31 23.294 17.752 23.341 18.431 C 23.45 20.018 13.769 19.789 13.913 18.468 C 14.006 17.622 14.638 16.309 15.48 16.016 C 16.258 15.745 21.684 15.808 22.201 16.095 Z M 16.04 22.407 C 15.927 22.697 13.77 22.716 13.478 22.43 C 13.261 22.218 13.198 21.263 13.387 21.077 C 13.86 20.613 16.317 21.698 16.04 22.407 Z M 23.93 21.165 C 24.26 21.489 24.177 22.263 23.791 22.465 C 23.384 22.679 21.334 22.84 21.334 22.214 C 21.334 21.508 23.437 20.682 23.93 21.165 Z"
        fill="#232f34"/>
</svg>
