<svg
    xmlns="http://www.w3.org/2000/svg"
    viewBox="0 0 30 32"
    width="25" height="26"
    id="vector">
    <path
        id="path"
        d="M 28 5.8 L 28 23 C 28 25.4 26 27.4 23.6 27.4 L 20 27.4 C 19.3 27.4 18.5 27.7 18 28.3 L 16.2 30.3 C 15.8 30.7 15.2 30.7 14.8 30.3 L 13 28.3 C 12.5 27.7 11.8 27.4 11 27.4 L 6.4 27.4 C 4 27.4 2 25.4 2 23 L 2 5.8 C 2 3.4 4 1.4 6.4 1.4 L 23.6 1.4 C 26 1.4 28 3.4 28 5.8 Z"
        fill="#ffffff"
        stroke="#b92025"
        stroke-width="1"/>
    <path
        id="path_1"
        d="M 14.3 7.7 C 14.1 7.8 14.1 8.6 13.8 8.7 C 13.6 8.8 13.7 8 13.4 8.1 C 13.2 8.1 13.2 8.3 13.1 8.4 C 13 8.4 13 9.5 12.9 9.3 C 12.7 9.3 12.8 8.7 12.6 8.8 C 12.2 8.9 12.3 9 12.3 9.5 C 12.3 10.1 12.3 10.1 11.9 10.1 C 11.3 10.1 11.3 10.1 11.3 10.3 C 11.2 10.8 10.2 10.7 9.8 10.9 C 9.7 11 10 11.1 10 11.3 C 10 11.6 10.2 11.5 10.6 11.6 C 11.3 11.7 11.3 11.6 11.4 12.1 C 11.7 13.3 12.4 14.7 12.1 15.8 C 10.8 15.7 7.9 14.4 10.5 17.4 C 10.8 18.1 11.5 18.6 12.3 18.5 C 13.2 18.3 11.9 17.8 11.6 17.6 C 11.5 17.5 11 16.7 11 16.7 C 10.9 16.5 13 17.2 13.2 16.9 C 13.8 16.8 14.6 17.2 15.5 16.8 C 17.1 16.2 16.9 17.2 18 17.8 C 18.9 18.3 19.7 18.4 20.6 18.5 C 21.4 19.8 22.1 20.6 23.5 21.5 C 23.5 21.3 23.5 20.9 23.5 20.7 C 22.1 19.8 22 18.9 21.4 17.8 C 20.7 17.4 20 16.8 20.2 15.9 C 18.8 13.6 13.6 15.8 12.9 11.5 C 12.5 10.7 14 11.3 13.8 10.6 C 13.9 10.2 13.2 10.3 13 10.2 C 12.8 10 14.2 9 14.5 8.7 C 14.6 8.4 14.9 7.5 14.3 7.7 Z"
        fill="#000000"/>
</svg>
