<svg xmlns="http://www.w3.org/2000/svg" viewBox="0 0 30 32" id="vector">
    <path id="path"
        d="M 7.812 1.408 L 15.412 1.408 L 22.188 1.408 C 24.428 1.408 25.548 1.408 26.404 1.844 C 27.157 2.227 27.769 2.839 28.152 3.592 C 28.588 4.447 28.588 5.568 28.588 7.808 L 28.588 21.929 C 28.588 24.169 28.588 25.289 28.152 26.145 C 27.769 26.897 27.157 27.509 26.404 27.893 C 25.548 28.329 24.428 28.329 22.188 28.329 L 19.737 28.329 C 19.206 28.329 18.94 28.329 18.693 28.393 C 18.474 28.45 18.266 28.544 18.078 28.67 C 17.866 28.813 17.69 29.012 17.339 29.41 L 16.611 30.234 C 16.196 30.704 15.989 30.938 15.744 31.024 C 15.529 31.1 15.294 31.1 15.079 31.024 C 14.834 30.938 14.627 30.704 14.212 30.234 L 13.485 29.41 C 13.133 29.012 12.957 28.813 12.745 28.67 C 12.557 28.544 12.349 28.45 12.13 28.393 C 11.883 28.329 11.617 28.329 11.086 28.329 L 7.812 28.329 C 5.571 28.329 4.451 28.329 3.596 27.893 C 2.843 27.509 2.231 26.897 1.848 26.145 C 1.412 25.289 1.412 24.169 1.412 21.929 L 1.412 7.808 C 1.412 5.568 1.412 4.447 1.848 3.592 C 2.231 2.839 2.843 2.227 3.596 1.844 C 4.451 1.408 5.571 1.408 7.812 1.408 Z"
        fill="#ffd666" stroke="#232f34" stroke-width="1" />
    <path id="path_1" d="M 9.235 22.764 L 5 16.764 L 8.529 16.764 L 17 22.764 L 9.235 22.764 Z"
        fill="#526e7a" stroke="#526e7a" stroke-width="1" />
    <path id="path_2" d="M 8.009 16.055 L 16 21.764" fill="#00000000" stroke="#ffffff"
        stroke-width="0.5" />
    <path id="path_3"
        d="M 8.797 23.41 C 8.877 23.522 9.033 23.548 9.145 23.468 C 9.258 23.387 9.284 23.231 9.203 23.119 L 8.797 23.41 Z M 3.797 16.41 L 8.797 23.41 L 9.203 23.119 L 4.203 16.119 L 3.797 16.41 Z"
        fill="#ffffff" />
    <path id="path_4"
        d="M 6.177 15.587 L 6 15.411 L 5.646 15.764 L 5.823 15.941 L 6.177 15.587 Z M 5.823 15.941 L 6.173 16.291 L 6.527 15.937 L 6.177 15.587 L 5.823 15.941 Z M 6.873 16.991 L 7.573 17.691 L 7.927 17.337 L 7.227 16.637 L 6.873 16.991 Z M 8.273 18.391 L 8.973 19.091 L 9.327 18.737 L 8.627 18.037 L 8.273 18.391 Z M 9.673 19.791 L 10.373 20.491 L 10.727 20.137 L 10.027 19.437 L 9.673 19.791 Z M 11.073 21.191 L 11.773 21.891 L 12.127 21.537 L 11.427 20.837 L 11.073 21.191 Z M 12.473 22.591 L 12.823 22.941 L 13.177 22.587 L 12.827 22.237 L 12.473 22.591 Z"
        fill="#ffffff" />
    <path id="path_5"
        d="M 22.753 17.428 L 23.295 16.417 L 22.435 16.275 L 23.256 15.899 L 23.09 14.917 L 23.974 15.699 L 24.556 14.99 L 24.609 15.894 L 25.547 16.231 L 24.56 16.432 L 24.732 17.502 L 23.974 16.622 L 22.753 17.428 Z"
        fill="#ffd666" stroke="#232f34" stroke-width="0.3" />
    <path id="path_6"
        d="M 22.24 18.172 L 22.24 17.747 L 21.116 17.747 L 21.116 18.685 C 20.916 18.68 20.515 18.694 20.071 18.905 C 19.665 19.1 19.411 19.369 19.289 19.525 L 17.09 19.525 L 17.09 19.007 L 15.83 19.007 L 15.83 19.525 C 15.83 19.525 15.678 19.535 15.351 19.691 C 15.023 19.852 14.94 20.199 14.94 20.199 C 14.94 20.199 14.931 23.649 14.94 24.362 C 14.95 25.076 15.722 25.032 15.722 25.032 C 15.722 25.032 23.124 25.046 23.686 25.032 C 24.248 25.017 24.37 24.357 24.37 24.357 C 24.375 22.447 24.38 20.537 24.385 18.626 L 22.235 18.167 L 22.24 18.172 Z M 17.217 20.483 L 15.717 20.483 L 15.717 19.857 L 17.217 19.857 L 17.217 20.483 Z M 21.155 23.116 C 20.09 23.116 19.225 22.251 19.225 21.186 C 19.225 20.121 20.09 19.256 21.155 19.256 C 22.221 19.256 23.085 20.121 23.085 21.186 C 23.085 22.251 22.221 23.116 21.155 23.116 Z"
        fill="#232f34" />
    <path id="path_7"
        d="M 21.155 22.515 C 21.889 22.515 22.484 21.92 22.484 21.186 C 22.484 20.452 21.889 19.857 21.155 19.857 C 20.421 19.857 19.826 20.452 19.826 21.186 C 19.826 21.92 20.421 22.515 21.155 22.515 Z"
        fill="#ffd666" stroke="#232f34" stroke-width="0.5" />
    <path id="path_8"
        d="M 21.155 21.938 C 21.57 21.938 21.907 21.602 21.907 21.186 C 21.907 20.771 21.57 20.434 21.155 20.434 C 20.739 20.434 20.402 20.771 20.402 21.186 C 20.402 21.602 20.739 21.938 21.155 21.938 Z"
        fill="#232f34" />
    <path id="path_9"
        d="M 9.757 10.849 L 10.156 10.105 L 9.523 10 L 10.127 9.723 L 10.005 9 L 10.656 9.576 L 11.085 9.054 L 11.124 9.72 L 11.815 9.968 L 11.088 10.115 L 11.214 10.903 L 10.656 10.256 L 9.757 10.849 Z"
        fill="#ffd666" stroke="#232f34" stroke-width="0.25" />
    <path id="path_10"
        d="M 9.379 11.396 L 9.379 11.083 L 8.551 11.083 L 8.551 11.774 C 8.404 11.771 8.109 11.781 7.781 11.936 C 7.483 12.08 7.296 12.278 7.206 12.393 L 5.586 12.393 L 5.586 12.012 L 4.658 12.012 L 4.658 12.393 C 4.658 12.393 4.547 12.4 4.305 12.516 C 4.064 12.634 4.003 12.89 4.003 12.89 C 4.003 12.89 3.996 15.43 4.003 15.955 C 4.01 16.481 4.579 16.448 4.579 16.448 C 4.579 16.448 10.03 16.459 10.444 16.448 C 10.858 16.438 10.948 15.952 10.948 15.952 C 10.951 14.545 10.955 13.138 10.958 11.731 L 9.375 11.393 L 9.379 11.396 Z M 5.68 13.099 L 4.575 13.099 L 4.575 12.638 L 5.68 12.638 L 5.68 13.099 Z M 8.58 15.038 C 7.796 15.038 7.159 14.401 7.159 13.617 C 7.159 12.832 7.796 12.195 8.58 12.195 C 9.364 12.195 10.001 12.832 10.001 13.617 C 10.001 14.401 9.364 15.038 8.58 15.038 Z"
        fill="#232f34" />
    <path id="path_11"
        d="M 8.58 14.595 C 9.12 14.595 9.558 14.157 9.558 13.616 C 9.558 13.076 9.12 12.638 8.58 12.638 C 8.039 12.638 7.601 13.076 7.601 13.616 C 7.601 14.157 8.039 14.595 8.58 14.595 Z"
        fill="#ffd666" stroke="#232f34" stroke-width="0.4" />
    <path id="path_12"
        d="M 8.58 14.171 C 8.886 14.171 9.134 13.923 9.134 13.617 C 9.134 13.311 8.886 13.063 8.58 13.063 C 8.274 13.063 8.026 13.311 8.026 13.617 C 8.026 13.923 8.274 14.171 8.58 14.171 Z"
        fill="#232f34" />
    <path id="path_13"
        d="M 7.974 4.328 C 8.188 4.288 8.485 4.263 8.773 4.263 C 9.218 4.263 9.506 4.337 9.712 4.508 C 9.876 4.638 9.967 4.842 9.967 5.079 C 9.967 5.471 9.695 5.74 9.358 5.846 L 9.358 5.862 C 9.605 5.944 9.753 6.156 9.835 6.466 C 9.942 6.882 10.017 7.176 10.082 7.29 L 9.654 7.29 C 9.605 7.208 9.531 6.947 9.44 6.572 C 9.341 6.156 9.168 6.001 8.789 5.993 L 8.394 5.993 L 8.394 7.29 L 7.974 7.29 L 7.974 4.328 Z M 8.394 5.691 L 8.822 5.691 C 9.267 5.691 9.555 5.462 9.555 5.12 C 9.555 4.736 9.251 4.565 8.814 4.557 C 8.616 4.557 8.468 4.573 8.402 4.589 L 8.402 5.683 L 8.394 5.691 Z"
        fill="#232f34" />
    <path id="path_14"
        d="M 11.112 6.343 L 10.774 7.282 L 10.346 7.282 L 11.441 4.288 L 11.943 4.288 L 13.047 7.282 L 12.602 7.282 L 12.256 6.343 L 11.112 6.343 Z M 12.174 6.042 L 11.861 5.177 C 11.787 4.981 11.738 4.802 11.696 4.63 L 11.688 4.63 C 11.639 4.81 11.589 4.989 11.523 5.169 L 11.21 6.033 L 12.182 6.033 L 12.174 6.042 Z"
        fill="#232f34" />
    <path id="path_15"
        d="M 13.525 4.328 C 13.781 4.296 14.085 4.263 14.415 4.263 C 15.016 4.263 15.444 4.394 15.724 4.638 C 16.012 4.883 16.177 5.226 16.177 5.715 C 16.177 6.205 16.012 6.604 15.708 6.882 C 15.403 7.159 14.909 7.314 14.275 7.314 C 13.978 7.314 13.731 7.298 13.517 7.282 L 13.517 4.328 L 13.525 4.328 Z M 13.945 6.98 C 14.052 6.996 14.201 7.004 14.365 7.004 C 15.255 7.004 15.741 6.539 15.741 5.732 C 15.741 5.022 15.312 4.573 14.431 4.573 C 14.217 4.573 14.052 4.589 13.945 4.614 L 13.945 6.98 Z"
        fill="#232f34" />
    <path id="path_16"
        d="M 17.181 6.343 L 16.844 7.282 L 16.416 7.282 L 17.511 4.288 L 18.013 4.288 L 19.117 7.282 L 18.672 7.282 L 18.326 6.343 L 17.181 6.343 Z M 18.244 6.042 L 17.931 5.177 C 17.857 4.981 17.807 4.802 17.766 4.63 L 17.758 4.63 C 17.708 4.81 17.659 4.989 17.593 5.169 L 17.28 6.033 L 18.252 6.033 L 18.244 6.042 Z"
        fill="#232f34" />
    <path id="path_17"
        d="M 19.603 4.328 C 19.817 4.288 20.113 4.263 20.401 4.263 C 20.846 4.263 21.134 4.337 21.34 4.508 C 21.505 4.638 21.596 4.842 21.596 5.079 C 21.596 5.471 21.324 5.74 20.986 5.846 L 20.986 5.862 C 21.233 5.944 21.381 6.156 21.464 6.466 C 21.571 6.882 21.645 7.176 21.711 7.29 L 21.282 7.29 C 21.233 7.208 21.159 6.947 21.068 6.572 C 20.97 6.156 20.797 6.001 20.418 5.993 L 20.022 5.993 L 20.022 7.29 L 19.603 7.29 L 19.603 4.328 Z M 20.022 5.691 L 20.451 5.691 C 20.896 5.691 21.184 5.462 21.184 5.12 C 21.184 4.736 20.879 4.565 20.442 4.557 C 20.245 4.557 20.097 4.573 20.031 4.589 L 20.031 5.683 L 20.022 5.691 Z"
        fill="#232f34" />
</svg>
