<svg xmlns="http://www.w3.org/2000/svg" viewBox="0 0 34 38" width="26" height="29" id="vector">
    <path id="path"
        d="M 6.9 0.5 L 17.5 0.5 L 27.1 0.5 C 29.34 0.5 30.46 0.5 31.316 0.936 C 32.069 1.319 32.681 1.931 33.064 2.684 C 33.5 3.54 33.5 4.66 33.5 6.9 L 33.5 27.1 C 33.5 29.34 33.5 30.46 33.064 31.316 C 32.681 32.069 32.069 32.681 31.316 33.064 C 30.46 33.5 29.34 33.5 27.1 33.5 L 22.452 33.5 C 21.918 33.5 21.65 33.5 21.402 33.565 C 21.182 33.623 20.973 33.717 20.784 33.845 C 20.572 33.99 20.396 34.191 20.044 34.593 L 18.704 36.124 C 18.288 36.599 18.08 36.837 17.834 36.924 C 17.618 37.001 17.382 37.001 17.166 36.924 C 16.92 36.837 16.712 36.599 16.296 36.124 L 14.956 34.593 C 14.604 34.191 14.428 33.99 14.216 33.845 C 14.027 33.717 13.818 33.623 13.598 33.565 C 13.349 33.5 13.082 33.5 12.548 33.5 L 6.9 33.5 C 4.66 33.5 3.54 33.5 2.684 33.064 C 1.931 32.681 1.319 32.069 0.936 31.316 C 0.5 30.46 0.5 29.34 0.5 27.1 L 0.5 6.9 C 0.5 4.66 0.5 3.54 0.936 2.684 C 1.319 1.931 1.931 1.319 2.684 0.936 C 3.54 0.5 4.66 0.5 6.9 0.5 Z"
        fill="#ffd666" stroke="#232f34" stroke-width="1" />
    <path id="path_1"
        d="M 22.999 13.69 L 24.109 11.62 L 22.349 11.33 L 24.029 10.56 L 23.689 8.55 L 25.499 10.15 L 26.689 8.7 L 26.799 10.55 L 28.719 11.24 L 26.699 11.65 L 27.049 13.84 L 25.499 12.04 L 22.999 13.69 Z"
        fill="#ffd666" stroke="#232f34" stroke-width="0.5" />
    <path id="path_2"
        d="M 21.949 15.21 L 21.949 14.34 L 19.649 14.34 L 19.649 16.26 C 19.239 16.25 18.419 16.28 17.509 16.71 C 16.679 17.11 16.159 17.66 15.909 17.98 L 11.409 17.98 L 11.409 16.92 L 8.829 16.92 L 8.829 17.98 C 8.829 17.98 8.519 18 7.849 18.32 C 7.179 18.65 7.009 19.36 7.009 19.36 C 7.009 19.36 6.989 26.42 7.009 27.88 C 7.029 29.34 8.609 29.25 8.609 29.25 C 8.609 29.25 23.759 29.28 24.909 29.25 C 26.059 29.22 26.309 27.87 26.309 27.87 C 26.319 23.96 26.329 20.05 26.339 16.14 L 21.939 15.2 L 21.949 15.21 Z M 11.669 19.94 L 8.599 19.94 L 8.599 18.66 L 11.669 18.66 L 11.669 19.94 Z M 19.729 25.33 C 17.549 25.33 15.779 23.56 15.779 21.38 C 15.779 19.2 17.549 17.43 19.729 17.43 C 21.909 17.43 23.679 19.2 23.679 21.38 C 23.679 23.56 21.909 25.33 19.729 25.33 Z"
        fill="#232f34" />
    <path id="path_3"
        d="M 19.729 24.1 C 21.231 24.1 22.449 22.882 22.449 21.38 C 22.449 19.878 21.231 18.66 19.729 18.66 C 18.227 18.66 17.009 19.878 17.009 21.38 C 17.009 22.882 18.227 24.1 19.729 24.1 Z"
        fill="#ffd666" stroke="#232f34" />
    <path id="path_4"
        d="M 19.729 22.92 C 20.579 22.92 21.268 22.23 21.268 21.38 C 21.268 20.529 20.579 19.84 19.729 19.84 C 18.878 19.84 18.188 20.529 18.188 21.38 C 18.188 22.23 18.878 22.92 19.729 22.92 Z"
        fill="#232f34" />
    <path id="path_5"
        d="M 8.469 4.08 C 8.729 4.03 9.089 4 9.439 4 C 9.979 4 10.329 4.09 10.579 4.3 C 10.779 4.46 10.889 4.71 10.889 5 C 10.889 5.48 10.559 5.81 10.149 5.94 L 10.149 5.96 C 10.449 6.06 10.629 6.32 10.729 6.7 C 10.859 7.21 10.949 7.57 11.029 7.71 L 10.509 7.71 C 10.449 7.61 10.359 7.29 10.249 6.83 C 10.129 6.32 9.919 6.13 9.459 6.12 L 8.979 6.12 L 8.979 7.71 L 8.469 7.71 L 8.469 4.08 Z M 8.979 5.75 L 9.499 5.75 C 10.039 5.75 10.389 5.47 10.389 5.05 C 10.389 4.58 10.019 4.37 9.489 4.36 C 9.249 4.36 9.069 4.38 8.989 4.4 L 8.989 5.74 L 8.979 5.75 Z"
        fill="#232f34" />
    <path id="path_6"
        d="M 12.279 6.55 L 11.869 7.7 L 11.349 7.7 L 12.679 4.03 L 13.289 4.03 L 14.629 7.7 L 14.089 7.7 L 13.669 6.55 L 12.279 6.55 Z M 13.569 6.18 L 13.189 5.12 C 13.099 4.88 13.039 4.66 12.989 4.45 L 12.979 4.45 C 12.919 4.67 12.859 4.89 12.779 5.11 L 12.399 6.17 L 13.579 6.17 L 13.569 6.18 Z"
        fill="#232f34" />
    <path id="path_7"
        d="M 15.209 4.08 C 15.519 4.04 15.889 4 16.289 4 C 17.019 4 17.539 4.16 17.879 4.46 C 18.229 4.76 18.429 5.18 18.429 5.78 C 18.429 6.38 18.229 6.87 17.859 7.21 C 17.489 7.55 16.889 7.74 16.119 7.74 C 15.759 7.74 15.459 7.72 15.199 7.7 L 15.199 4.08 L 15.209 4.08 Z M 15.719 7.33 C 15.849 7.35 16.029 7.36 16.229 7.36 C 17.309 7.36 17.899 6.79 17.899 5.8 C 17.899 4.93 17.379 4.38 16.309 4.38 C 16.049 4.38 15.849 4.4 15.719 4.43 L 15.719 7.33 Z"
        fill="#232f34" />
    <path id="path_8"
        d="M 19.649 6.55 L 19.239 7.7 L 18.719 7.7 L 20.049 4.03 L 20.659 4.03 L 21.999 7.7 L 21.459 7.7 L 21.039 6.55 L 19.649 6.55 Z M 20.939 6.18 L 20.559 5.12 C 20.469 4.88 20.409 4.66 20.359 4.45 L 20.349 4.45 C 20.289 4.67 20.229 4.89 20.149 5.11 L 19.769 6.17 L 20.949 6.17 L 20.939 6.18 Z"
        fill="#232f34" />
    <path id="path_9"
        d="M 22.589 4.08 C 22.849 4.03 23.209 4 23.559 4 C 24.099 4 24.449 4.09 24.699 4.3 C 24.899 4.46 25.009 4.71 25.009 5 C 25.009 5.48 24.679 5.81 24.269 5.94 L 24.269 5.96 C 24.569 6.06 24.749 6.32 24.849 6.7 C 24.979 7.21 25.069 7.57 25.149 7.71 L 24.629 7.71 C 24.569 7.61 24.479 7.29 24.369 6.83 C 24.249 6.32 24.039 6.13 23.579 6.12 L 23.099 6.12 L 23.099 7.71 L 22.589 7.71 L 22.589 4.08 Z M 23.099 5.75 L 23.619 5.75 C 24.159 5.75 24.509 5.47 24.509 5.05 C 24.509 4.58 24.139 4.37 23.609 4.36 C 23.369 4.36 23.189 4.38 23.109 4.4 L 23.109 5.74 L 23.099 5.75 Z"
        fill="#232f34" />
</svg>
